# Made in Blockbench 5.0.7
mtllib ball_mill.mtl

o mesh
v 2.25 -0.125 0.9375
v -2 1.5 -0.625
v -2 1.5 0.625
v -2 0.25 -0.625
v -2 0.25 0.625
v 3 1.5 -0.625
v 3 1.5 0.625
v 3 0.25 -0.625
v 3 0.25 0.625
v 2.5 1.625 -0.75
v 2.5 1.625 0.75
v 2.5 0.125 -0.75
v 2.5 0.125 0.75
v 2.75 1.625 -0.75
v 2.75 1.625 0.75
v 2.75 0.125 -0.75
v 2.75 0.125 0.75
v -2 -0.5 -1
v -2 -0.5 2
v -2 -1 -1
v -2 -1 2
v 3 -0.5 -1
v 3 -0.5 2
v 3 -1 -1
v 3 -1 2
v 1.4375 0 0.6875
v 1.4375 0 1.3125
v 1.4375 -0.5 0.6875
v 1.4375 -0.5 1.3125
v 1.9375 0 0.6875
v 1.9375 0 1.3125
v 1.9375 -0.5 0.6875
v 1.9375 -0.5 1.3125
v -2 -0.125 0.6875
v -2 -0.125 1.1875
v -2 -0.5 0.6875
v -2 -0.5 1.1875
v 1.4375 -0.125 0.6875
v 1.4375 -0.125 1.1875
v 1.4375 -0.5 0.6875
v 1.4375 -0.5 1.1875
v -2.9375 0.375 1.75
v -2.9375 0.375 1.9375
v -2.9375 0 1.75
v -2.9375 0 1.9375
v 0 0.375 1.75
v 0 0.375 1.9375
v 0 0 1.75
v 0 0 1.9375
v 1 0.375 1.75
v 1 0.375 1.9375
v 1 0 1.75
v 1 0 1.9375
v 3.9375 0.375 1.75
v 3.9375 0.375 1.9375
v 3.9375 0 1.75
v 3.9375 0 1.9375
v -2 1 1.75
v -2 1 1.9375
v -2 0.625 1.75
v -2 0.625 1.9375
v 0 1 1.75
v 0 1 1.9375
v 0 0.625 1.75
v 0 0.625 1.9375
v 1 1 1.75
v 1 1 1.9375
v 1 0.625 1.75
v 1 0.625 1.9375
v 3 1 1.75
v 3 1 1.9375
v 3 0.625 1.75
v 3 0.625 1.9375
v -2 0.625 1.75
v -2 0.625 1.9375
v -2 0.375 1.75
v -2 0.375 1.9375
v -1.75 0.625 1.75
v -1.75 0.625 1.9375
v -1.75 0.375 1.75
v -1.75 0.375 1.9375
v 2.75 0.625 1.75
v 2.75 0.625 1.9375
v 2.75 0.375 1.75
v 2.75 0.375 1.9375
v 3 0.625 1.75
v 3 0.625 1.9375
v 3 0.375 1.75
v 3 0.375 1.9375
v -2 1 0.625
v -2 1 1.75
v -2 0.625 0.625
v -2 0.625 1.75
v -1.75 1 0.625
v -1.75 1 1.75
v -1.75 0.625 0.625
v -1.75 0.625 1.75
v 2.75 1 0.625
v 2.75 1 1.75
v 2.75 0.625 0.625
v 2.75 0.625 1.75
v 3 1 0.625
v 3 1 1.75
v 3 0.625 0.625
v 3 0.625 1.75
v 1.4328125 6.441743305440895e-8 1.3125002011758409
v 1.4328125 -0.44194167382415905 1.754441939417433
v 1.4328125 -0.3535533261758407 0.958946810582567
v 1.4328125 -0.795495064417433 1.4008885488241591
v 1.9328125 6.441743305440895e-8 1.3125002011758409
v 1.9328125 -0.44194167382415905 1.754441939417433
v 1.9328125 -0.3535533261758407 0.958946810582567
v 1.9328125 -0.795495064417433 1.4008885488241591
v -2.5 0.9375 0
v -2.5 0.9375 1
v -2.5 0 0
v -2.5 0 1
v -2.9375 0.9375 0
v -2.9375 0.9375 1
v -2.9375 0 0
v -2.9375 0 1
v -2.9375 0.875 0.375
v -2.9375 0.875 0.625
v -2.9375 0.625 0.375
v -2.9375 0.625 0.625
v -3 0.875 0.375
v -3 0.875 0.625
v -3 0.625 0.375
v -3 0.625 0.625
v -2.9375 0.5625 0.25
v -2.9375 0.5625 0.75
v -2.9375 0.0625 0.25
v -2.9375 0.0625 0.75
v -3 0.5625 0.25
v -3 0.5625 0.75
v -3 0.0625 0.25
v -3 0.0625 0.75
v -3 0 0
v -3 0 1
v -3 -1 0
v -3 -1 1
v -2 0 0
v -2 0 1
v -2 -1 0
v -2 -1 1
v -3 0 1
v -3 0 2
v -3 -1 1
v -3 -1 2
v -2 0 1
v -2 0 2
v -2 -1 1
v -2 -1 2
v -3 1 -1
v -3 1 0
v -3 0 -1
v -3 0 0
v -2 1 -1
v -2 1 0
v -2 0 -1
v -2 0 0
v -2.996875 1.5862237711934348 -0.9989448194547303
v -2.996875 2.0000002324381883 -7.492690151655879e-8
v -2.996875 1.182026475719747 -0.8315208177950035
v -2.996875 1.5958029369645002 0.16742392673282525
v -1.9968750000000002 1.5862237711934348 -0.9989448194547303
v -1.9968750000000002 2.0000002324381883 -7.492690151655879e-8
v -1.9968750000000002 1.182026475719747 -0.8315208177950035
v -1.9968750000000002 1.5958029369645002 0.16742392673282525
v -3 2 0
v -3 2 1
v -3 1.5625 0
v -3 1.5625 1
v -2 2 0
v -2 2 1
v -2 1.5625 0
v -2 1.5625 1
v -3 1 0
v -3 1 1
v -3 0.9375 0
v -3 0.9375 1
v -2 1 0
v -2 1 1
v -2 0.9375 0
v -2 0.9375 1
v -3 0 -1
v -3 0 0
v -3 -1 -1
v -3 -1 0
v -2 0 -1
v -2 0 0
v -2 -1 -1
v -2 -1 0
v -2.00625 1.5875 -1
v -2.00625 1.5875 -0.5625
v -2.00625 1 -1
v -2.00625 1 -0.5625
v -3 1.5875 -1
v -3 1.5875 -0.5625
v -3 1 -1
v -3 1 -0.5625
v -2 1.5625 0.0625
v -2 1.5625 0.9375
v -2 0.9375 0.0625
v -2 0.9375 0.9375
v -2.8875 1.5625 0.0625
v -2.8875 1.5625 0.9375
v -2.8875 0.9375 0.0625
v -2.8875 0.9375 0.9375
v -2 1.2520741419062915 0.37772195862743224
v -2 0.5124921838600675 1.9637605859415697
v -2 1.0254971951471292 0.27206739319225737
v -2 0.28591523710090505 1.8581060205063948
v -2.875 1.2520741419062915 0.37772195862743224
v -2.875 0.5124921838600675 1.9637605859415697
v -2.875 1.0254971951471292 0.27206739319225737
v -2.875 0.28591523710090505 1.8581060205063948
v -2.0625 0.9990835537883354 0.32871162988204805
v -2.0625 0.25950159574211135 1.9147502571961854
v -2.0625 0.3193527135108479 0.011747933576523484
v -2.0625 -0.42022924453537613 1.5977865608906607
v -2.75 0.9990835537883354 0.32871162988204805
v -2.75 0.25950159574211135 1.9147502571961854
v -2.75 0.3193527135108479 0.011747933576523484
v -2.75 -0.42022924453537613 1.5977865608906607
v 3.75 0.9990835537883354 0.32871162988204805
v 3.75 0.25950159574211135 1.9147502571961854
v 3.75 0.3193527135108479 0.011747933576523484
v 3.75 -0.42022924453537613 1.5977865608906607
v 3.0625 0.9990835537883354 0.32871162988204805
v 3.0625 0.25950159574211135 1.9147502571961854
v 3.0625 0.3193527135108479 0.011747933576523484
v 3.0625 -0.42022924453537613 1.5977865608906607
v 3.5 0.9375 0
v 3.5 0.9375 1
v 3.5 0 0
v 3.5 0 1
v 3.9375 0.9375 0
v 3.9375 0.9375 1
v 3.9375 0 0
v 3.9375 0 1
v 3.9375 0.5625 0.25
v 3.9375 0.5625 0.75
v 3.9375 0.0625 0.25
v 3.9375 0.0625 0.75
v 4 0.5625 0.25
v 4 0.5625 0.75
v 4 0.0625 0.25
v 4 0.0625 0.75
v 3.9375 0.875 0.375
v 3.9375 0.875 0.625
v 3.9375 0.625 0.375
v 3.9375 0.625 0.625
v 4 0.875 0.375
v 4 0.875 0.625
v 4 0.625 0.375
v 4 0.625 0.625
v 3 0 0
v 3 0 1
v 3 -1 0
v 3 -1 1
v 4 0 0
v 4 0 1
v 4 -1 0
v 4 -1 1
v 3 0 -1
v 3 0 0
v 3 -1 -1
v 3 -1 0
v 4 0 -1
v 4 0 0
v 4 -1 -1
v 4 -1 0
v 3 0 1
v 3 0 2
v 3 -1 1
v 3 -1 2
v 4 0 1
v 4 0 2
v 4 -1 1
v 4 -1 2
v 3 1 -1
v 3 1 0
v 3 0 -1
v 3 0 0
v 4 1 -1
v 4 1 0
v 4 0 -1
v 4 0 0
v 3.00625 1.25 -0.875
v 3.00625 1.25 0.375
v 3.00625 0.875 -0.875
v 3.00625 0.875 0.375
v 3.88125 1.25 -0.875
v 3.88125 1.25 0.375
v 3.88125 0.875 -0.875
v 3.88125 0.875 0.375
v 3 1.2520741419062915 0.37772195862743224
v 3 0.5124921838600675 1.9637605859415697
v 3 0.9688529584573384 0.2456537518334636
v 3 0.22927100041111437 1.8316923791476012
v 3.875 1.2520741419062915 0.37772195862743224
v 3.875 0.5124921838600675 1.9637605859415697
v 3.875 0.9688529584573384 0.2456537518334636
v 3.875 0.22927100041111437 1.8316923791476012
v 2.4375 0.12185937499999999 0.848325625
v 2.4375 0.34832562499999997 0.003140625000000008
v 2.4375 -0.240363125 0.7512687499999999
v 2.4375 -0.013896249999999943 -0.09391624999999998
v 2.8125 0.12185937499999999 0.848325625
v 2.8125 0.34832562499999997 0.003140625000000008
v 2.8125 -0.240363125 0.7512687499999999
v 2.8125 -0.013896249999999943 -0.09391624999999998
v 2.25 -0.125 -0.9375
v 2.25 -0.5 -0.9375
v 2.25 -0.5 0.9375
v 3 -0.125 -0.9375
v 3 -0.125 0.9375
v 3 -0.5 -0.9375
v 3 -0.5 0.9375
v 2.3125 0.5 -0.3125
v 2.3125 0.5 0.3125
v 2.3125 -0.125 -0.3125
v 2.3125 -0.125 0.3125
v 2.9375 0.5 -0.3125
v 2.9375 0.5 0.3125
v 2.9375 -0.125 -0.3125
v 2.9375 -0.125 0.3125
v 2.4375 0.1218592167691146 -0.8483258812338201
v 2.4375 0.34832588123382013 -0.0031407832308854577
v 2.4375 -0.24036296808928603 -0.751268739320375
v 2.4375 -0.013896303624580386 0.09391635868255982
v 2.8125 0.1218592167691146 -0.8483258812338201
v 2.8125 0.34832588123382013 -0.0031407832308854577
v 2.8125 -0.24036296808928603 -0.751268739320375
v 2.8125 -0.013896303624580386 0.09391635868255982
v 0.75 0 1.625
v 0.75 0 1.875
v 0.75 -0.5 1.625
v 0.75 -0.5 1.875
v 0.875 0 1.625
v 0.875 0 1.875
v 0.875 -0.5 1.625
v 0.875 -0.5 1.875
v 0.125 0 1.625
v 0.125 0 1.875
v 0.125 -0.5 1.625
v 0.125 -0.5 1.875
v 0.25 0 1.625
v 0.25 0 1.875
v 0.25 -0.5 1.625
v 0.25 -0.5 1.875
v 0 1 1.5
v 0 1 2
v 0 0 1.5
v 0 0 2
v 1 1 1.5
v 1 1 2
v 1 0 1.5
v 1 0 2
vt 0.640625 0.6796875
vt 0.484375 0.6796875
vt 0.484375 0.5234375
vt 0.640625 0.5234375
vt 0.640625 0.5234375
vt 0.640625 0.6796875
vt 0.484375 0.6796875
vt 0.484375 0.5234375
vt 0.25 0.3046875
vt 0.875 0.3046875
vt 0.875 0.4609375
vt 0.25 0.4609375
vt 0.875 0.3046875
vt 0.875 0.4609375
vt 0.25 0.4609375
vt 0.25 0.3046875
vt 0.875 0.3046875
vt 0.875 0.4609375
vt 0.25 0.4609375
vt 0.25 0.3046875
vt 0.875 0.4609375
vt 0.25 0.4609375
vt 0.25 0.3046875
vt 0.875 0.3046875
vt 0.828125 1
vt 0.640625 1
vt 0.640625 0.8125
vt 0.828125 0.8125
vt 0.828125 0.8125
vt 0.828125 1
vt 0.640625 1
vt 0.640625 0.8125
vt 0.828125 0.8125
vt 0.859375 0.8125
vt 0.859375 1
vt 0.828125 1
vt 0.859375 0.8125
vt 0.859375 1
vt 0.828125 1
vt 0.828125 0.8125
vt 0.859375 0.8125
vt 0.859375 1
vt 0.828125 1
vt 0.828125 0.8125
vt 0.859375 1
vt 0.828125 1
vt 0.828125 0.8125
vt 0.859375 0.8125
vt 0.375 0.125
vt 0 0.125
vt 0 0.0625
vt 0.375 0.0625
vt 0.375 0.0625
vt 0.375 0.125
vt 0 0.125
vt 0 0.0625
vt 0 0.625
vt 0.625 0.625
vt 0.625 1
vt 0 1
vt 0.625 0.25
vt 0.625 0.6171875
vt 0 0.6171875
vt 0 0.25
vt 0.625 0.1875
vt 0.625 0.25
vt 0 0.25
vt 0 0.1875
vt 0.625 0.25
vt 0 0.25
vt 0 0.1875
vt 0.625 0.1875
vt 0.328125 0.921875
vt 0.25 0.921875
vt 0.25 0.859375
vt 0.328125 0.859375
vt 0.25 0.859375
vt 0.3125 0.859375
vt 0.3125 0.9375
vt 0.25 0.9375
vt 0.25 0.859375
vt 0.3125 0.859375
vt 0.3125 0.9375
vt 0.25 0.9375
vt 0.21875 0.1328125
vt 0.21875 0.2109375
vt 0.15625 0.2109375
vt 0.15625 0.1328125
vt 0.3125 0.859375
vt 0.3125 0.921875
vt 0.25 0.921875
vt 0.25 0.859375
vt 0.3125 0.921875
vt 0.25 0.921875
vt 0.25 0.859375
vt 0.3125 0.859375
vt 0.7421875 0.5234375
vt 0.6796875 0.5234375
vt 0.6796875 0.4765625
vt 0.7421875 0.4765625
vt 0.7421875 0.4765625
vt 0.7421875 0.5234375
vt 0.6796875 0.5234375
vt 0.6796875 0.4765625
vt 0.25 0.4609375
vt 0.6796875 0.4609375
vt 0.6796875 0.5234375
vt 0.25 0.5234375
vt 0.6796875 0.4609375
vt 0.6796875 0.5234375
vt 0.25 0.5234375
vt 0.25 0.4609375
vt 0.6796875 0.4765625
vt 0.6796875 0.5234375
vt 0.25 0.5234375
vt 0.25 0.4765625
vt 0.6796875 0.5234375
vt 0.25 0.5234375
vt 0.25 0.4765625
vt 0.6796875 0.4765625
vt 0.640625 0.859375
vt 0.6171875 0.859375
vt 0.6171875 0.8125
vt 0.640625 0.8125
vt 0.640625 0.8125
vt 0.640625 0.859375
vt 0.6171875 0.859375
vt 0.6171875 0.8125
vt 0.25 0.7890625
vt 0.6171875 0.7890625
vt 0.6171875 0.8125
vt 0.25 0.8125
vt 0.6171875 0.7890625
vt 0.6171875 0.8125
vt 0.25 0.8125
vt 0.25 0.7890625
vt 0.6171875 0.8125
vt 0.6171875 0.859375
vt 0.25 0.859375
vt 0.25 0.8125
vt 0.6171875 0.859375
vt 0.25 0.859375
vt 0.25 0.8125
vt 0.6171875 0.8125
vt 0.640625 0.859375
vt 0.6171875 0.859375
vt 0.6171875 0.8125
vt 0.640625 0.8125
vt 0.640625 0.8125
vt 0.640625 0.859375
vt 0.6171875 0.859375
vt 0.6171875 0.8125
vt 0.25 0.7890625
vt 0.6171875 0.7890625
vt 0.6171875 0.8125
vt 0.25 0.8125
vt 0.6171875 0.7890625
vt 0.6171875 0.8125
vt 0.25 0.8125
vt 0.25 0.7890625
vt 0.6171875 0.8125
vt 0.6171875 0.859375
vt 0.25 0.859375
vt 0.25 0.8125
vt 0.6171875 0.859375
vt 0.25 0.859375
vt 0.25 0.8125
vt 0.6171875 0.8125
vt 0.640625 0.859375
vt 0.6171875 0.859375
vt 0.6171875 0.8125
vt 0.640625 0.8125
vt 0.640625 0.8125
vt 0.640625 0.859375
vt 0.6171875 0.859375
vt 0.6171875 0.8125
vt 0.25 0.7890625
vt 0.5 0.7890625
vt 0.5 0.8125
vt 0.25 0.8125
vt 0.5 0.7890625
vt 0.5 0.8125
vt 0.25 0.8125
vt 0.25 0.7890625
vt 0.5 0.7421875
vt 0.5 0.7890625
vt 0.25 0.7890625
vt 0.25 0.7421875
vt 0.5 0.7890625
vt 0.25 0.7890625
vt 0.25 0.7421875
vt 0.5 0.7421875
vt 0.640625 0.859375
vt 0.6171875 0.859375
vt 0.6171875 0.8125
vt 0.640625 0.8125
vt 0.640625 0.8125
vt 0.640625 0.859375
vt 0.6171875 0.859375
vt 0.6171875 0.8125
vt 0.25 0.7890625
vt 0.5 0.7890625
vt 0.5 0.8125
vt 0.25 0.8125
vt 0.5 0.7890625
vt 0.5 0.8125
vt 0.25 0.8125
vt 0.25 0.7890625
vt 0.5 0.7421875
vt 0.5 0.7890625
vt 0.25 0.7890625
vt 0.25 0.7421875
vt 0.5 0.7890625
vt 0.25 0.7890625
vt 0.25 0.7421875
vt 0.5 0.7421875
vt 0.640625 0.84375
vt 0.6171875 0.84375
vt 0.6171875 0.8125
vt 0.640625 0.8125
vt 0.640625 0.8125
vt 0.640625 0.84375
vt 0.6171875 0.84375
vt 0.6171875 0.8125
vt 0.609375 0.8125
vt 0.640625 0.8125
vt 0.640625 0.8359375
vt 0.609375 0.8359375
vt 0.640625 0.8125
vt 0.640625 0.8359375
vt 0.609375 0.8359375
vt 0.609375 0.8125
vt 0.640625 0.8125
vt 0.640625 0.84375
vt 0.609375 0.84375
vt 0.609375 0.8125
vt 0.640625 0.84375
vt 0.609375 0.84375
vt 0.609375 0.8125
vt 0.640625 0.8125
vt 0.640625 0.84375
vt 0.6171875 0.84375
vt 0.6171875 0.8125
vt 0.640625 0.8125
vt 0.640625 0.8125
vt 0.640625 0.84375
vt 0.6171875 0.84375
vt 0.6171875 0.8125
vt 0.609375 0.8125
vt 0.640625 0.8125
vt 0.640625 0.8359375
vt 0.609375 0.8359375
vt 0.640625 0.8125
vt 0.640625 0.8359375
vt 0.609375 0.8359375
vt 0.609375 0.8125
vt 0.640625 0.8125
vt 0.640625 0.84375
vt 0.609375 0.84375
vt 0.609375 0.8125
vt 0.640625 0.84375
vt 0.609375 0.84375
vt 0.609375 0.8125
vt 0.640625 0.8125
vt 0.640625 0.7890625
vt 0.5 0.7890625
vt 0.5 0.7421875
vt 0.640625 0.7421875
vt 0.640625 0.7421875
vt 0.640625 0.7890625
vt 0.5 0.7890625
vt 0.5 0.7421875
vt 0.390625 0.78125
vt 0.390625 0.8125
vt 0.25 0.8125
vt 0.25 0.78125
vt 0.390625 0.8125
vt 0.25 0.8125
vt 0.25 0.78125
vt 0.390625 0.78125
vt 0.640625 0.8125
vt 0.640625 0.859375
vt 0.609375 0.859375
vt 0.609375 0.8125
vt 0.640625 0.859375
vt 0.609375 0.859375
vt 0.609375 0.8125
vt 0.640625 0.8125
vt 0.640625 0.7890625
vt 0.5 0.7890625
vt 0.5 0.7421875
vt 0.640625 0.7421875
vt 0.640625 0.7421875
vt 0.640625 0.7890625
vt 0.5 0.7890625
vt 0.5 0.7421875
vt 0.390625 0.78125
vt 0.390625 0.8125
vt 0.25 0.8125
vt 0.25 0.78125
vt 0.390625 0.8125
vt 0.25 0.8125
vt 0.25 0.78125
vt 0.390625 0.78125
vt 0.640625 0.8125
vt 0.640625 0.859375
vt 0.609375 0.859375
vt 0.609375 0.8125
vt 0.640625 0.859375
vt 0.609375 0.859375
vt 0.609375 0.8125
vt 0.640625 0.8125
vt 0.25 0.9375
vt 0.25 0.859375
vt 0.3125 0.859375
vt 0.3125 0.9375
vt 0.25 0.859375
vt 0.3125 0.859375
vt 0.3125 0.9375
vt 0.25 0.9375
vt 0.25 0.859375
vt 0.3125 0.859375
vt 0.3125 0.9375
vt 0.25 0.9375
vt 0.21875 0.1328125
vt 0.21875 0.2109375
vt 0.15625 0.2109375
vt 0.15625 0.1328125
vt 0.3125 0.859375
vt 0.3125 0.921875
vt 0.25 0.921875
vt 0.25 0.859375
vt 0.3125 0.921875
vt 0.25 0.921875
vt 0.25 0.859375
vt 0.3125 0.859375
vt 0.125 0.75
vt 0.125 0.8671875
vt 0 0.8671875
vt 0 0.75
vt 0.125 0.8671875
vt 0 0.8671875
vt 0 0.75
vt 0.125 0.75
vt 0 0.9921875
vt 0 0.8671875
vt 0.0546875 0.8671875
vt 0.0546875 0.9921875
vt 0.0546875 0.9921875
vt 0 0.9921875
vt 0 0.8671875
vt 0.0546875 0.8671875
vt 0.0546875 0.984375
vt 0 0.984375
vt 0 0.8671875
vt 0.0546875 0.8671875
vt 0.0546875 0.8671875
vt 0.0546875 0.984375
vt 0 0.984375
vt 0 0.8671875
vt 0.421875 0.6171875
vt 0.390625 0.6171875
vt 0.390625 0.5859375
vt 0.421875 0.5859375
vt 0.421875 0.6171875
vt 0.390625 0.6171875
vt 0.390625 0.5859375
vt 0.421875 0.5859375
vt 0.421875 0.625
vt 0.390625 0.625
vt 0.390625 0.6171875
vt 0.421875 0.6171875
vt 0.390625 0.5859375
vt 0.390625 0.578125
vt 0.421875 0.578125
vt 0.421875 0.5859375
vt 0.390625 0.6171875
vt 0.3828125 0.6171875
vt 0.3828125 0.5859375
vt 0.390625 0.5859375
vt 0.4296875 0.5859375
vt 0.4296875 0.6171875
vt 0.421875 0.6171875
vt 0.421875 0.5859375
vt 0.4453125 0.5703125
vt 0.3828125 0.5703125
vt 0.3828125 0.5078125
vt 0.4453125 0.5078125
vt 0.4453125 0.5703125
vt 0.3828125 0.5703125
vt 0.3828125 0.5078125
vt 0.4453125 0.5078125
vt 0.4453125 0.578125
vt 0.3828125 0.578125
vt 0.3828125 0.5703125
vt 0.4453125 0.5703125
vt 0.3828125 0.5078125
vt 0.3828125 0.5
vt 0.4453125 0.5
vt 0.4453125 0.5078125
vt 0.3828125 0.5703125
vt 0.375 0.5703125
vt 0.375 0.5078125
vt 0.3828125 0.5078125
vt 0.4453125 0.5078125
vt 0.4453125 0.5703125
vt 0.453125 0.5703125
vt 0.453125 0.5078125
vt 0.5 0.875
vt 0.375 0.875
vt 0.375 0.75
vt 0.5 0.75
vt 1 0.125
vt 1 0.25
vt 0.875 0.25
vt 0.875 0.125
vt 0.875 0.125
vt 1 0.125
vt 1 0.25
vt 0.875 0.25
vt 1 0.125
vt 1 0.25
vt 0.875 0.25
vt 0.875 0.125
vt 1 0.125
vt 1 0.25
vt 0.875 0.25
vt 0.875 0.125
vt 1 0.25
vt 0.875 0.25
vt 0.875 0.125
vt 1 0.125
vt 0.25 1
vt 0.125 1
vt 0.125 0.875
vt 0.25 0.875
vt 0.25 0.875
vt 0.25 1
vt 0.125 1
vt 0.125 0.875
vt 0.75 0.125
vt 0.875 0.125
vt 0.875 0.25
vt 0.75 0.25
vt 1 0.125
vt 1 0.25
vt 0.875 0.25
vt 0.875 0.125
vt 0.25 0.875
vt 0.25 1
vt 0.125 1
vt 0.125 0.875
vt 0.25 1
vt 0.125 1
vt 0.125 0.875
vt 0.25 0.875
vt 0.25 0.875
vt 0.125 0.875
vt 0.125 0.75
vt 0.25 0.75
vt 0.875 0.125
vt 0.875 0.25
vt 0.75 0.25
vt 0.75 0.125
vt 0.75 0.125
vt 0.875 0.125
vt 0.875 0.25
vt 0.75 0.25
vt 0.25 0.3671875
vt 0.25 0.4921875
vt 0.125 0.4921875
vt 0.125 0.3671875
vt 0.25 0.625
vt 0.25 0.75
vt 0.125 0.75
vt 0.125 0.625
vt 0.875 0.25
vt 0.75 0.25
vt 0.75 0.125
vt 0.875 0.125
vt 0.46875 1
vt 0.34375 1
vt 0.34375 0.9453125
vt 0.46875 0.9453125
vt 0.46875 0.9453125
vt 0.46875 1
vt 0.34375 1
vt 0.34375 0.9453125
vt 0 0.86484375
vt 0.125 0.86484375
vt 0.125 1
vt 0 1
vt 0.125 0.86484375
vt 0.125 1
vt 0 1
vt 0 0.86484375
vt 0.25 0.875
vt 0.25 0.9296875
vt 0.125 0.9296875
vt 0.125 0.875
vt 0.25 0.9296875
vt 0.125 0.9296875
vt 0.125 0.875
vt 0.25 0.875
vt 0.125 0.6953125
vt 0 0.6953125
vt 0 0.640625
vt 0.125 0.640625
vt 0.125 0.5859375
vt 0.125 0.640625
vt 0 0.640625
vt 0 0.5859375
vt 0 0.375
vt 0.125 0.375
vt 0.125 0.5
vt 0 0.5
vt 0.875 0.125
vt 0.875 0.25
vt 0.75 0.25
vt 0.75 0.125
vt 0.125 0.6953125
vt 0.125 0.75
vt 0 0.75
vt 0 0.6953125
vt 0.00023609375 0.6947789843750001
vt 0.1252315625 0.69584796875
vt 0.12476390625 0.750533515625
vt 0 0.74946453125
vt 0.125 0.7578125
vt 0 0.7578125
vt 0 0.75
vt 0.125 0.75
vt 0.125 0.75
vt 0.125 0.7578125
vt 0 0.7578125
vt 0 0.75
vt 0.00054296875 0.87553828125
vt 0 0.75054296875
vt 0.12445703125 0.74946171875
vt 0.12553828125 0.87445703125
vt 0 0.75054296875
vt 0.12445703125 0.74946171875
vt 0.12553828125 0.87445703125
vt 0.00054296875 0.87553828125
vt 0 0.75
vt 0.0078125 0.75
vt 0.0078125 0.875
vt 0 0.875
vt 0.1171875 0.875
vt 0.1171875 0.75
vt 0.125 0.75
vt 0.125 0.875
vt 0.25 1
vt 0.125 1
vt 0.125 0.875
vt 0.25 0.875
vt 0.25 0.875
vt 0.25 1
vt 0.125 1
vt 0.125 0.875
vt 0.75 0.125
vt 0.875 0.125
vt 0.875 0.25
vt 0.75 0.25
vt 1 0.125
vt 1 0.25
vt 0.875 0.25
vt 0.875 0.125
vt 0.25 0.875
vt 0.25 1
vt 0.125 1
vt 0.125 0.875
vt 0.25 1
vt 0.125 1
vt 0.125 0.875
vt 0.25 0.875
vt 0.577734375 1
vt 0.504296875 1
vt 0.504296875 0.9453125
vt 0.577734375 0.9453125
vt 0.504296875 1
vt 0.504296875 0.9453125
vt 0.577734375 0.9453125
vt 0.577734375 1
vt 0.34375 1
vt 0.34375 0.9453125
vt 0.46796875 0.9453125
vt 0.46796875 1
vt 0.24921875 0.453125
vt 0.125 0.453125
vt 0.125 0.3984375
vt 0.24921875 0.3984375
vt 0.12421875 1
vt 0 1
vt 0 0.9265625
vt 0.12421875 0.9265625
vt 0.12421875 0.9265625
vt 0.12421875 1
vt 0 1
vt 0 0.9265625
vt 0.1171875 0.796875
vt 0.1171875 0.875
vt 0.0078125 0.875
vt 0.0078125 0.796875
vt 0.1171875 0.875
vt 0.0078125 0.875
vt 0.0078125 0.796875
vt 0.1171875 0.796875
vt 0.0078125 0.859375
vt 0.0078125 0.75
vt 0.11875 0.75
vt 0.11875 0.859375
vt 0.11875 0.859375
vt 0.0078125 0.859375
vt 0.0078125 0.75
vt 0.11875 0.75
vt 0.359375 0.625
vt 0.25 0.625
vt 0.25 0.546875
vt 0.359375 0.546875
vt 0.25 0.625
vt 0.25 0.546875
vt 0.359375 0.546875
vt 0.359375 0.625
vt 0.4765625 0.828125
vt 0.4765625 0.859375
vt 0.2578125 0.859375
vt 0.2578125 0.828125
vt 0.4765625 0.859375
vt 0.2578125 0.859375
vt 0.2578125 0.828125
vt 0.4765625 0.828125
vt 0.0078125 0.5859375
vt 0.0078125 0.3671875
vt 0.1171875 0.3671875
vt 0.1171875 0.5859375
vt 0.1171875 0.5859375
vt 0.0078125 0.5859375
vt 0.0078125 0.3671875
vt 0.1171875 0.3671875
vt 0.1171875 0.5859375
vt 0.0078125 0.5859375
vt 0.0078125 0.5546875
vt 0.1171875 0.5546875
vt 0.1171875 0.5546875
vt 0.1171875 0.5859375
vt 0.0078125 0.5859375
vt 0.0078125 0.5546875
vt 0.5390625 0.5
vt 0.6328125 0.5
vt 0.6328125 0.71875
vt 0.5390625 0.71875
vt 0.6328125 0.5
vt 0.6328125 0.71875
vt 0.5390625 0.71875
vt 0.5390625 0.5
vt 0.6484375 0.234375
vt 0.6484375 0.015625
vt 0.734375 0.015625
vt 0.734375 0.234375
vt 0.734375 0.234375
vt 0.6484375 0.234375
vt 0.6484375 0.015625
vt 0.734375 0.015625
vt 0.765625 0.224609375
vt 0.765625 0.138671875
vt 0.859375 0.138671875
vt 0.859375 0.224609375
vt 0.859375 0.2265625
vt 0.765625 0.2265625
vt 0.765625 0.140625
vt 0.859375 0.140625
vt 0.5390625 0.5
vt 0.6328125 0.5
vt 0.6328125 0.71875
vt 0.5390625 0.71875
vt 0.6328125 0.5
vt 0.6328125 0.71875
vt 0.5390625 0.71875
vt 0.5390625 0.5
vt 0.6484375 0.234375
vt 0.6484375 0.015625
vt 0.734375 0.015625
vt 0.734375 0.234375
vt 0.734375 0.234375
vt 0.6484375 0.234375
vt 0.6484375 0.015625
vt 0.734375 0.015625
vt 0.765625 0.224609375
vt 0.765625 0.138671875
vt 0.859375 0.138671875
vt 0.859375 0.224609375
vt 0.859375 0.2265625
vt 0.765625 0.2265625
vt 0.765625 0.140625
vt 0.859375 0.140625
vt 0.375 0.7421875
vt 0.25 0.7421875
vt 0.25 0.625
vt 0.375 0.625
vt 0.375 0.625
vt 0.375 0.7421875
vt 0.25 0.7421875
vt 0.25 0.625
vt 0.25 0.7421875
vt 0.25 0.6875
vt 0.375 0.6875
vt 0.375 0.7421875
vt 0.375 0.7421875
vt 0.25 0.7421875
vt 0.25 0.6875
vt 0.375 0.6875
vt 0.125 0.875
vt 0.125 0.9921875
vt 0.0703125 0.9921875
vt 0.0703125 0.875
vt 0.125 0.9921875
vt 0.0703125 0.9921875
vt 0.0703125 0.875
vt 0.125 0.875
vt 0.4453125 0.5703125
vt 0.3828125 0.5703125
vt 0.3828125 0.5078125
vt 0.4453125 0.5078125
vt 0.4453125 0.5078125
vt 0.4453125 0.5703125
vt 0.3828125 0.5703125
vt 0.3828125 0.5078125
vt 0.4453125 0.5703125
vt 0.4453125 0.578125
vt 0.3828125 0.578125
vt 0.3828125 0.5703125
vt 0.3828125 0.5
vt 0.4453125 0.5
vt 0.4453125 0.5078125
vt 0.3828125 0.5078125
vt 0.453125 0.5078125
vt 0.453125 0.5703125
vt 0.4453125 0.5703125
vt 0.4453125 0.5078125
vt 0.3828125 0.5703125
vt 0.375 0.5703125
vt 0.375 0.5078125
vt 0.3828125 0.5078125
vt 0.46875 0.6171875
vt 0.4375 0.6171875
vt 0.4375 0.5859375
vt 0.46875 0.5859375
vt 0.46875 0.5859375
vt 0.46875 0.6171875
vt 0.4375 0.6171875
vt 0.4375 0.5859375
vt 0.4375 0.625
vt 0.4375 0.6171875
vt 0.46875 0.6171875
vt 0.46875 0.625
vt 0.4375 0.578125
vt 0.46875 0.578125
vt 0.46875 0.5859375
vt 0.4375 0.5859375
vt 0.4765625 0.5859375
vt 0.4765625 0.6171875
vt 0.46875 0.6171875
vt 0.46875 0.5859375
vt 0.4375 0.6171875
vt 0.4296875 0.6171875
vt 0.4296875 0.5859375
vt 0.4375 0.5859375
vt 0.875 0.25
vt 0.75 0.25
vt 0.75 0.125
vt 0.875 0.125
vt 0.5 0.625
vt 0.5 0.75
vt 0.375 0.75
vt 0.375 0.625
vt 0.75 0.125
vt 0.875 0.125
vt 0.875 0.25
vt 0.75 0.25
vt 1 0.125
vt 1 0.25
vt 0.875 0.25
vt 0.875 0.125
vt 0.875 0.125
vt 0.875 0.25
vt 0.75 0.25
vt 0.75 0.125
vt 0.875 0.25
vt 0.75 0.25
vt 0.75 0.125
vt 0.875 0.125
vt 0.984375 1
vt 0.859375 1
vt 0.859375 0.875
vt 0.984375 0.875
vt 0.984375 0.875
vt 0.984375 1
vt 0.859375 1
vt 0.859375 0.875
vt 0.75 0.125
vt 0.875 0.125
vt 0.875 0.25
vt 0.75 0.25
vt 1 0.125
vt 1 0.25
vt 0.875 0.25
vt 0.875 0.125
vt 0.984375 0.875
vt 0.984375 1
vt 0.859375 1
vt 0.859375 0.875
vt 0.984375 1
vt 0.859375 1
vt 0.859375 0.875
vt 0.984375 0.875
vt 0.984375 1
vt 0.859375 1
vt 0.859375 0.875
vt 0.984375 0.875
vt 0.984375 0.875
vt 0.984375 1
vt 0.859375 1
vt 0.859375 0.875
vt 0.75 0.125
vt 0.875 0.125
vt 0.875 0.25
vt 0.75 0.25
vt 1 0.125
vt 1 0.25
vt 0.875 0.25
vt 0.875 0.125
vt 0.984375 0.875
vt 0.984375 1
vt 0.859375 1
vt 0.859375 0.875
vt 0.984375 1
vt 0.859375 1
vt 0.859375 0.875
vt 0.984375 0.875
vt 0.25 0.5
vt 0.125 0.5
vt 0.125 0.375
vt 0.25 0.375
vt 0.25 0.375
vt 0.25 0.5
vt 0.125 0.5
vt 0.125 0.375
vt 0.75 0.125
vt 0.875 0.125
vt 0.875 0.25
vt 0.75 0.25
vt 0.875 0.125
vt 0.875 0.25
vt 0.75 0.25
vt 0.75 0.125
vt 0.25 0.5
vt 0.25 0.625
vt 0.125 0.625
vt 0.125 0.5
vt 0.25 0.625
vt 0.125 0.625
vt 0.125 0.5
vt 0.25 0.5
vt 0.515625 1
vt 0.359375 1
vt 0.359375 0.953125
vt 0.515625 0.953125
vt 0.515625 0.953125
vt 0.515625 1
vt 0.359375 1
vt 0.359375 0.953125
vt 0.375 0.5859375
vt 0.484375 0.5859375
vt 0.484375 0.7421875
vt 0.375 0.7421875
vt 0.484375 0.5859375
vt 0.484375 0.7421875
vt 0.375 0.7421875
vt 0.375 0.5859375
vt 0.578125 0.953125
vt 0.578125 1
vt 0.46875 1
vt 0.46875 0.953125
vt 0.578125 1
vt 0.46875 1
vt 0.46875 0.953125
vt 0.578125 0.953125
vt 0.46875 0.859375
vt 0.25 0.859375
vt 0.25 0.828125
vt 0.46875 0.828125
vt 0.46875 0.828125
vt 0.46875 0.859375
vt 0.25 0.859375
vt 0.25 0.828125
vt 0.375 0.5234375
vt 0.484375 0.5234375
vt 0.484375 0.7421875
vt 0.375 0.7421875
vt 0.484375 0.5234375
vt 0.484375 0.7421875
vt 0.375 0.7421875
vt 0.375 0.5234375
vt 0.484375 0.7109375
vt 0.484375 0.7421875
vt 0.375 0.7421875
vt 0.375 0.7109375
vt 0.484375 0.7421875
vt 0.375 0.7421875
vt 0.375 0.7109375
vt 0.484375 0.7109375
vt 0.453125 1
vt 0.34375 1
vt 0.34375 0.953125
vt 0.453125 0.953125
vt 0.34354828125 0.999523671875
vt 0.34395578125 0.95265046875
vt 0.45332671875 0.953601328125
vt 0.45291921875 1
vt 0.34354828125 0.999523671875
vt 0.34395578125 0.95265046875
vt 0.45332671875 0.953601328125
vt 0.45291921875 1
vt 0.2109375 0.375
vt 0.2109375 0.484375
vt 0.1640625 0.484375
vt 0.1640625 0.375
vt 0.29707859375 0.952923125
vt 0.343951875 0.95332859375
vt 0.34354640625 1
vt 0.296673125 0.99979640625
vt 0.34375 1
vt 0.296875 1
vt 0.296875 0.953125
vt 0.34375 0.953125
vt 0.578125 1
vt 0.34375 1
vt 0.34375 0.953125
vt 0.578125 0.953125
vt 0.578125 0.953125
vt 0.578125 1
vt 0.34375 1
vt 0.34375 0.953125
vt 0.34375 0.953125
vt 0.34375 0.859375
vt 0.578125 0.859375
vt 0.578125 0.953125
vt 0.234375 0.3125
vt 0.234375 0.546875
vt 0.140625 0.546875
vt 0.140625 0.3125
vt 0.34375 0.953125
vt 0.34375 1
vt 0.25 1
vt 0.25 0.953125
vt 0.34375 1
vt 0.25 1
vt 0.25 0.953125
vt 0.34375 0.953125
vt 0.8515625 0.2265625
vt 0.7734375 0.2265625
vt 0.7734375 0.1484375
vt 0.8515625 0.1484375
vt 0.8515625 0.1484375
vt 0.8515625 0.2265625
vt 0.7734375 0.2265625
vt 0.7734375 0.1484375
vt 0.7734375 0.1484375
vt 0.8515625 0.1484375
vt 0.8515625 0.2265625
vt 0.7734375 0.2265625
vt 0.8515625 0.1484375
vt 0.8515625 0.2265625
vt 0.7734375 0.2265625
vt 0.7734375 0.1484375
vt 0.8515625 0.1484375
vt 0.8515625 0.2265625
vt 0.7734375 0.2265625
vt 0.7734375 0.1484375
vt 0.8515625 0.2265625
vt 0.7734375 0.2265625
vt 0.7734375 0.1484375
vt 0.8515625 0.1484375
vt 0.453125 1
vt 0.34375 1
vt 0.34375 0.953125
vt 0.453125 0.953125
vt 0.34354828125 0.999523671875
vt 0.34395578125 0.95265046875
vt 0.45332671875 0.953601328125
vt 0.45291921875 1
vt 0.34354828125 0.999523671875
vt 0.34395578125 0.95265046875
vt 0.45332671875 0.953601328125
vt 0.45291921875 1
vt 0.2109375 0.375
vt 0.2109375 0.484375
vt 0.1640625 0.484375
vt 0.1640625 0.375
vt 0.29707859375 0.952923125
vt 0.343951875 0.95332859375
vt 0.34354640625 1
vt 0.296673125 0.99979640625
vt 0.34375 1
vt 0.296875 1
vt 0.296875 0.953125
vt 0.34375 0.953125
vt 0.734375 0.5625
vt 0.703125 0.5625
vt 0.703125 0.5
vt 0.734375 0.5
vt 0.703125 0.5625
vt 0.703125 0.5
vt 0.734375 0.5
vt 0.734375 0.5625
vt 0 0.625
vt 0.375 0.625
vt 0.375 1
vt 0 1
vt 0.375 0.2421875
vt 0.375 0.6171875
vt 0 0.6171875
vt 0 0.2421875
vt 0.75 0.5
vt 0.75 0.5625
vt 0.734375 0.5625
vt 0.734375 0.5
vt 0.75 0.5625
vt 0.734375 0.5625
vt 0.734375 0.5
vt 0.75 0.5
vt 0.734375 0.5625
vt 0.703125 0.5625
vt 0.703125 0.5
vt 0.734375 0.5
vt 0.734375 0.5
vt 0.734375 0.5625
vt 0.703125 0.5625
vt 0.703125 0.5
vt 0 0.625
vt 0.375 0.625
vt 0.375 1
vt 0 1
vt 0.375 0.2421875
vt 0.375 0.6171875
vt 0 0.6171875
vt 0 0.2421875
vt 0.75 0.5
vt 0.75 0.5625
vt 0.734375 0.5625
vt 0.734375 0.5
vt 0.75 0.5625
vt 0.734375 0.5625
vt 0.734375 0.5
vt 0.75 0.5
vt 1 0.1875
vt 1 0.25
vt 0.875 0.25
vt 0.875 0.1875
vt 1 0.25
vt 0.875 0.25
vt 0.875 0.1875
vt 1 0.1875
vt 1 0.25
vt 0.875 0.25
vt 0.875 0.1875
vt 1 0.1875
vt 1 0.1875
vt 1 0.25
vt 0.875 0.25
vt 0.875 0.1875
vt 1 0.125
vt 1 0.25
vt 0.875 0.25
vt 0.875 0.125
vt 0.875 0.625
vt 0.75 0.625
vt 0.75 0.5
vt 0.875 0.5
vn -1 0 0
vn 1 0 0
vn 0 1 0
vn 0 -1 0
vn 0 0 -1
vn 0 0 1
vn -1 0 0
vn 1 0 0
vn 0 1 0
vn 0 -1 0
vn 0 0 -1
vn 0 0 1
vn -1 0 0
vn 1 0 0
vn 0 1 0
vn 0 -1 0
vn 0 0 -1
vn 0 0 1
vn -1 0 0
vn 1 0 0
vn 0 1 0
vn 0 -1 0
vn 0 0 -1
vn 0 0 1
vn -1 0 0
vn 1 0 0
vn 0 1 0
vn 0 -1 0
vn 0 0 -1
vn 0 0 1
vn -1 0 0
vn 1 0 0
vn 0 1 0
vn 0 -1 0
vn 0 0 -1
vn 0 0 1
vn -1 0 0
vn 1 0 0
vn 0 1 0
vn 0 -1 0
vn 0 0 -1
vn 0 0 1
vn -1 0 0
vn 1 0 0
vn 0 1 0
vn 0 -1 0
vn 0 0 -1
vn 0 0 1
vn -1 0 0
vn 1 0 0
vn 0 1 0
vn 0 -1 0
vn 0 0 -1
vn 0 0 1
vn -1 0 0
vn 1 0 0
vn 0 1 0
vn 0 -1 0
vn 0 0 -1
vn 0 0 1
vn -1 0 0
vn 1 0 0
vn 0 1 0
vn 0 -1 0
vn 0 0 -1
vn 0 0 1
vn -1 0 0
vn 1 0 0
vn 0 1 0
vn 0 -1 0
vn 0 0 -1
vn 0 0 1
vn -1 0 0
vn 1 0 0
vn 0 1 0
vn 0 -1 0
vn 0 0 -1
vn 0 0 1
vn -1 0 0
vn 1 0 0
vn 0 0.7071067811865477 0.7071067811865475
vn 0 -0.7071067811865474 -0.7071067811865477
vn 0 0.7071067811865477 -0.7071067811865475
vn 0 -0.7071067811865476 0.7071067811865476
vn 1 0 0
vn -1 0 0
vn 0 1 0
vn 0 -1 0
vn 0 0 -1
vn 0 0 1
vn 1 0 0
vn -1 0 0
vn 0 1 0
vn 0 -1 0
vn 0 0 -1
vn 0 0 1
vn 1 0 0
vn -1 0 0
vn 0 1 0
vn 0 -1 0
vn 0 0 -1
vn 0 0 1
vn -1 0 0
vn 1 0 0
vn 0 1 0
vn 0 -1 0
vn 0 0 -1
vn 0 0 1
vn -1 0 0
vn 1 0 0
vn 0 1 0
vn 0 -1 0
vn 0 0 -1
vn 0 0 1
vn -1 0 0
vn 1 0 0
vn 0 1 0
vn 0 -1 0
vn 0 0 -1
vn 0 0 1
vn -1 0 0
vn 1 0 0
vn 0 0.9238795325112867 -0.38268343236508984
vn 0 -0.923879532511287 0.3826834323650898
vn 0 -0.3826834323650899 -0.9238795325112867
vn 0 0.38268343236508967 0.9238795325112868
vn -1 0 0
vn 1 0 0
vn 0 1 0
vn 0 -1 0
vn 0 0 -1
vn 0 0 1
vn -1 0 0
vn 1 0 0
vn 0 1 0
vn 0 -1 0
vn 0 0 -1
vn 0 0 1
vn -1 0 0
vn 1 0 0
vn 0 1 0
vn 0 -1 0
vn 0 0 -1
vn 0 0 1
vn 1 0 0
vn -1 0 0
vn 0 1 0
vn 0 -1 0
vn 0 0 -1
vn 0 0 1
vn 1 0 0
vn -1 0 0
vn 0 1 0
vn 0 -1 0
vn 0 0 -1
vn 0 0 1
vn 1 0 0
vn -1 0 0
vn 0 0.9063077870366499 0.4226182617406995
vn 0 -0.9063077870366499 -0.42261826174069955
vn 0 0.42261826174069983 -0.9063077870366498
vn 0 -0.42261826174069944 0.90630778703665
vn 1 0 0
vn -1 0 0
vn 0 0.9063077870366499 0.42261826174069944
vn 0 -0.9063077870366499 -0.42261826174069944
vn 0 0.4226182617406994 -0.90630778703665
vn 0 -0.42261826174069955 0.90630778703665
vn 1 0 0
vn -1 0 0
vn 0 0.9063077870366499 0.42261826174069944
vn 0 -0.9063077870366499 -0.42261826174069944
vn 0 0.4226182617406994 -0.90630778703665
vn 0 -0.42261826174069955 0.90630778703665
vn -1 0 0
vn 1 0 0
vn 0 1 0
vn 0 -1 0
vn 0 0 -1
vn 0 0 1
vn -1 0 0
vn 1 0 0
vn 0 1 0
vn 0 -1 0
vn 0 0 -1
vn 0 0 1
vn -1 0 0
vn 1 0 0
vn 0 1 0
vn 0 -1 0
vn 0 0 -1
vn 0 0 1
vn -1 0 0
vn 1 0 0
vn 0 1 0
vn 0 -1 0
vn 0 0 -1
vn 0 0 1
vn -1 0 0
vn 1 0 0
vn 0 1 0
vn 0 -1 0
vn 0 0 -1
vn 0 0 1
vn -1 0 0
vn 1 0 0
vn 0 1 0
vn 0 -1 0
vn 0 0 -1
vn 0 0 1
vn -1 0 0
vn 1 0 0
vn 0 1 0
vn 0 -1 0
vn 0 0 -1
vn 0 0 1
vn -1 0 0
vn 1 0 0
vn 0 1 0
vn 0 -1 0
vn 0 0 -1
vn 0 0 1
vn -1 0 0
vn 1 0 0
vn 0 0.9063077870366499 0.4226182617406995
vn 0 -0.9063077870366502 -0.4226182617406995
vn 0 0.4226182617406997 -0.90630778703665
vn 0 -0.42261826174069916 0.90630778703665
vn -1 0 0
vn 1 0 0
vn 0 0.9659259372046904 0.25881863115942866
vn 0 -0.9659257586332889 -0.2588192975971951
vn 0 -0.25881817091887116 0.9659260605254473
vn 0 0.25881858758461673 -0.9659259488805052
vn -1 0 0
vn 1 0 0
vn 0 1 0
vn 0 -1 0
vn 0 0 -1
vn 0 0 1
vn -1 0 0
vn 1 0 0
vn 0 1 0
vn 0 -1 0
vn 0 0 -1
vn 0 0 1
vn -1 0 0
vn 1 0 0
vn 0 0.9659258262890683 -0.25881904510252063
vn 0 -0.9659258262890683 0.25881904510252074
vn 0 -0.2588190451025205 -0.9659258262890685
vn 0 0.25881904510252085 0.9659258262890683
vn -1 0 0
vn 1 0 0
vn 0 1 0
vn 0 -1 0
vn 0 0 -1
vn 0 0 1
vn -1 0 0
vn 1 0 0
vn 0 1 0
vn 0 -1 0
vn 0 0 -1
vn 0 0 1
vn -1 0 0
vn 1 0 0
vn 0 1 0
vn 0 -1 0
vn 0 0 -1
vn 0 0 1
usemtl ball_mill
f 3/1/1 2/2/1 4/3/1 5/4/1
f 8/5/2 6/6/2 7/7/2 9/8/2
f 6/9/3 2/10/3 3/11/3 7/12/3
f 5/13/4 4/14/4 8/15/4 9/16/4
f 4/17/5 2/18/5 6/19/5 8/20/5
f 7/21/6 3/22/6 5/23/6 9/24/6
f 11/25/7 10/26/7 12/27/7 13/28/7
f 16/29/8 14/30/8 15/31/8 17/32/8
f 14/33/9 10/34/9 11/35/9 15/36/9
f 13/37/10 12/38/10 16/39/10 17/40/10
f 12/41/11 10/42/11 14/43/11 16/44/11
f 15/45/12 11/46/12 13/47/12 17/48/12
usemtl multiblock_base
f 19/49/13 18/50/13 20/51/13 21/52/13
f 24/53/14 22/54/14 23/55/14 25/56/14
f 22/57/15 18/58/15 19/59/15 23/60/15
f 21/61/16 20/62/16 24/63/16 25/64/16
f 20/65/17 18/66/17 22/67/17 24/68/17
f 23/69/18 19/70/18 21/71/18 25/72/18
usemtl ball_mill
f 27/73/19 26/74/19 28/75/19 29/76/19
f 32/77/20 30/78/20 31/79/20 33/80/20
f 30/81/21 26/82/21 27/83/21 31/84/21
f 29/85/22 28/86/22 32/87/22 33/88/22
f 28/89/23 26/90/23 30/91/23 32/92/23
f 31/93/24 27/94/24 29/95/24 33/96/24
f 35/97/25 34/98/25 36/99/25 37/100/25
f 40/101/26 38/102/26 39/103/26 41/104/26
f 38/105/27 34/106/27 35/107/27 39/108/27
f 37/109/28 36/110/28 40/111/28 41/112/28
f 36/113/29 34/114/29 38/115/29 40/116/29
f 39/117/30 35/118/30 37/119/30 41/120/30
f 43/121/31 42/122/31 44/123/31 45/124/31
f 48/125/32 46/126/32 47/127/32 49/128/32
f 46/129/33 42/130/33 43/131/33 47/132/33
f 45/133/34 44/134/34 48/135/34 49/136/34
f 44/137/35 42/138/35 46/139/35 48/140/35
f 47/141/36 43/142/36 45/143/36 49/144/36
f 51/145/37 50/146/37 52/147/37 53/148/37
f 56/149/38 54/150/38 55/151/38 57/152/38
f 54/153/39 50/154/39 51/155/39 55/156/39
f 53/157/40 52/158/40 56/159/40 57/160/40
f 52/161/41 50/162/41 54/163/41 56/164/41
f 55/165/42 51/166/42 53/167/42 57/168/42
f 59/169/43 58/170/43 60/171/43 61/172/43
f 64/173/44 62/174/44 63/175/44 65/176/44
f 62/177/45 58/178/45 59/179/45 63/180/45
f 61/181/46 60/182/46 64/183/46 65/184/46
f 60/185/47 58/186/47 62/187/47 64/188/47
f 63/189/48 59/190/48 61/191/48 65/192/48
f 67/193/49 66/194/49 68/195/49 69/196/49
f 72/197/50 70/198/50 71/199/50 73/200/50
f 70/201/51 66/202/51 67/203/51 71/204/51
f 69/205/52 68/206/52 72/207/52 73/208/52
f 68/209/53 66/210/53 70/211/53 72/212/53
f 71/213/54 67/214/54 69/215/54 73/216/54
f 75/217/55 74/218/55 76/219/55 77/220/55
f 80/221/56 78/222/56 79/223/56 81/224/56
f 78/225/57 74/226/57 75/227/57 79/228/57
f 77/229/58 76/230/58 80/231/58 81/232/58
f 76/233/59 74/234/59 78/235/59 80/236/59
f 79/237/60 75/238/60 77/239/60 81/240/60
f 83/241/61 82/242/61 84/243/61 85/244/61
f 88/245/62 86/246/62 87/247/62 89/248/62
f 86/249/63 82/250/63 83/251/63 87/252/63
f 85/253/64 84/254/64 88/255/64 89/256/64
f 84/257/65 82/258/65 86/259/65 88/260/65
f 87/261/66 83/262/66 85/263/66 89/264/66
f 91/265/67 90/266/67 92/267/67 93/268/67
f 96/269/68 94/270/68 95/271/68 97/272/68
f 94/273/69 90/274/69 91/275/69 95/276/69
f 93/277/70 92/278/70 96/279/70 97/280/70
f 92/281/71 90/282/71 94/283/71 96/284/71
f 95/285/72 91/286/72 93/287/72 97/288/72
f 99/289/73 98/290/73 100/291/73 101/292/73
f 104/293/74 102/294/74 103/295/74 105/296/74
f 102/297/75 98/298/75 99/299/75 103/300/75
f 101/301/76 100/302/76 104/303/76 105/304/76
f 100/305/77 98/306/77 102/307/77 104/308/77
f 103/309/78 99/310/78 101/311/78 105/312/78
f 107/313/79 106/314/79 108/315/79 109/316/79
f 112/317/80 110/318/80 111/319/80 113/320/80
f 110/321/81 106/322/81 107/323/81 111/324/81
f 109/325/82 108/326/82 112/327/82 113/328/82
f 108/329/83 106/330/83 110/331/83 112/332/83
f 111/333/84 107/334/84 109/335/84 113/336/84
f 116/337/85 114/338/85 115/339/85 117/340/85
f 119/341/86 118/342/86 120/343/86 121/344/86
f 115/345/87 114/346/87 118/347/87 119/348/87
f 120/349/88 116/350/88 117/351/88 121/352/88
f 118/353/89 114/354/89 116/355/89 120/356/89
f 117/357/90 115/358/90 119/359/90 121/360/90
usemtl multiblock_components
f 124/361/91 122/362/91 123/363/91 125/364/91
f 127/365/92 126/366/92 128/367/92 129/368/92
f 123/369/93 122/370/93 126/371/93 127/372/93
f 128/373/94 124/374/94 125/375/94 129/376/94
f 126/377/95 122/378/95 124/379/95 128/380/95
f 125/381/96 123/382/96 127/383/96 129/384/96
f 132/385/97 130/386/97 131/387/97 133/388/97
f 135/389/98 134/390/98 136/391/98 137/392/98
f 131/393/99 130/394/99 134/395/99 135/396/99
f 136/397/100 132/398/100 133/399/100 137/400/100
f 134/401/101 130/402/101 132/403/101 136/404/101
f 133/405/102 131/406/102 135/407/102 137/408/102
f 139/409/103 138/410/103 140/411/103 141/412/103
usemtl multiblock_base
f 144/413/104 142/414/104 143/415/104 145/416/104
f 142/417/105 138/418/105 139/419/105 143/420/105
f 141/421/106 140/422/106 144/423/106 145/424/106
f 140/425/107 138/426/107 142/427/107 144/428/107
f 143/429/108 139/430/108 141/431/108 145/432/108
usemtl ball_mill
f 147/433/109 146/434/109 148/435/109 149/436/109
f 152/437/110 150/438/110 151/439/110 153/440/110
usemtl multiblock_base
f 150/441/111 146/442/111 147/443/111 151/444/111
f 149/445/112 148/446/112 152/447/112 153/448/112
usemtl ball_mill
f 148/449/113 146/450/113 150/451/113 152/452/113
f 151/453/114 147/454/114 149/455/114 153/456/114
f 155/457/115 154/458/115 156/459/115 157/460/115
usemtl multiblock_base
f 160/461/116 158/462/116 159/463/116 161/464/116
f 158/465/117 154/466/117 155/467/117 159/468/117
f 157/469/118 156/470/118 160/471/118 161/472/118
usemtl ball_mill
f 156/473/119 154/474/119 158/475/119 160/476/119
usemtl multiblock_base
f 159/477/120 155/478/120 157/479/120 161/480/120
usemtl ball_mill
f 163/481/121 162/482/121 164/483/121 165/484/121
f 168/485/122 166/486/122 167/487/122 169/488/122
f 166/489/123 162/490/123 163/491/123 167/492/123
f 165/493/124 164/494/124 168/495/124 169/496/124
f 164/497/125 162/498/125 166/499/125 168/500/125
f 167/501/126 163/502/126 165/503/126 169/504/126
f 171/505/127 170/506/127 172/507/127 173/508/127
f 176/509/128 174/510/128 175/511/128 177/512/128
usemtl multiblock_components
f 174/513/129 170/514/129 171/515/129 175/516/129
usemtl multiblock_base
f 173/517/130 172/518/130 176/519/130 177/520/130
usemtl ball_mill
f 172/521/131 170/522/131 174/523/131 176/524/131
f 175/525/132 171/526/132 173/527/132 177/528/132
f 179/529/133 178/530/133 180/531/133 181/532/133
f 184/533/134 182/534/134 183/535/134 185/536/134
f 182/537/135 178/538/135 179/539/135 183/540/135
f 181/541/136 180/542/136 184/543/136 185/544/136
f 180/545/137 178/546/137 182/547/137 184/548/137
f 183/549/138 179/550/138 181/551/138 185/552/138
f 187/553/139 186/554/139 188/555/139 189/556/139
f 192/557/140 190/558/140 191/559/140 193/560/140
usemtl multiblock_base
f 190/561/141 186/562/141 187/563/141 191/564/141
f 189/565/142 188/566/142 192/567/142 193/568/142
usemtl ball_mill
f 188/569/143 186/570/143 190/571/143 192/572/143
f 191/573/144 187/574/144 189/575/144 193/576/144
f 196/577/145 194/578/145 195/579/145 197/580/145
f 199/581/146 198/582/146 200/583/146 201/584/146
f 195/585/147 194/586/147 198/587/147 199/588/147
f 200/589/148 196/590/148 197/591/148 201/592/148
f 198/593/149 194/594/149 196/595/149 200/596/149
f 197/597/150 195/598/150 199/599/150 201/600/150
f 204/601/151 202/602/151 203/603/151 205/604/151
f 207/605/152 206/606/152 208/607/152 209/608/152
f 203/609/153 202/610/153 206/611/153 207/612/153
f 208/613/154 204/614/154 205/615/154 209/616/154
f 206/617/155 202/618/155 204/619/155 208/620/155
f 205/621/156 203/622/156 207/623/156 209/624/156
f 212/625/157 210/626/157 211/627/157 213/628/157
f 215/629/158 214/630/158 216/631/158 217/632/158
f 211/633/159 210/634/159 214/635/159 215/636/159
f 216/637/160 212/638/160 213/639/160 217/640/160
f 214/641/161 210/642/161 212/643/161 216/644/161
f 213/645/162 211/646/162 215/647/162 217/648/162
usemtl multiblock_components
f 220/649/163 218/650/163 219/651/163 221/652/163
f 223/653/164 222/654/164 224/655/164 225/656/164
usemtl multiblock_base
f 219/657/165 218/658/165 222/659/165 223/660/165
f 224/661/166 220/662/166 221/663/166 225/664/166
f 222/665/167 218/666/167 220/667/167 224/668/167
f 221/669/168 219/670/168 223/671/168 225/672/168
usemtl multiblock_components
f 228/673/169 226/674/169 227/675/169 229/676/169
f 231/677/170 230/678/170 232/679/170 233/680/170
usemtl multiblock_base
f 227/681/171 226/682/171 230/683/171 231/684/171
f 232/685/172 228/686/172 229/687/172 233/688/172
f 230/689/173 226/690/173 228/691/173 232/692/173
f 229/693/174 227/694/174 231/695/174 233/696/174
usemtl ball_mill
f 235/697/175 234/698/175 236/699/175 237/700/175
f 240/701/176 238/702/176 239/703/176 241/704/176
f 238/705/177 234/706/177 235/707/177 239/708/177
f 237/709/178 236/710/178 240/711/178 241/712/178
f 236/713/179 234/714/179 238/715/179 240/716/179
f 239/717/180 235/718/180 237/719/180 241/720/180
usemtl multiblock_components
f 243/721/181 242/722/181 244/723/181 245/724/181
f 248/725/182 246/726/182 247/727/182 249/728/182
f 246/729/183 242/730/183 243/731/183 247/732/183
f 245/733/184 244/734/184 248/735/184 249/736/184
f 244/737/185 242/738/185 246/739/185 248/740/185
f 247/741/186 243/742/186 245/743/186 249/744/186
f 251/745/187 250/746/187 252/747/187 253/748/187
f 256/749/188 254/750/188 255/751/188 257/752/188
f 254/753/189 250/754/189 251/755/189 255/756/189
f 253/757/190 252/758/190 256/759/190 257/760/190
f 252/761/191 250/762/191 254/763/191 256/764/191
f 255/765/192 251/766/192 253/767/192 257/768/192
usemtl multiblock_base
f 259/769/193 258/770/193 260/771/193 261/772/193
usemtl multiblock_components
f 264/773/194 262/774/194 263/775/194 265/776/194
usemtl multiblock_base
f 262/777/195 258/778/195 259/779/195 263/780/195
f 261/781/196 260/782/196 264/783/196 265/784/196
f 260/785/197 258/786/197 262/787/197 264/788/197
f 263/789/198 259/790/198 261/791/198 265/792/198
usemtl ball_mill
f 267/793/199 266/794/199 268/795/199 269/796/199
f 272/797/200 270/798/200 271/799/200 273/800/200
usemtl multiblock_base
f 270/801/201 266/802/201 267/803/201 271/804/201
f 269/805/202 268/806/202 272/807/202 273/808/202
usemtl ball_mill
f 268/809/203 266/810/203 270/811/203 272/812/203
f 271/813/204 267/814/204 269/815/204 273/816/204
f 275/817/205 274/818/205 276/819/205 277/820/205
f 280/821/206 278/822/206 279/823/206 281/824/206
usemtl multiblock_base
f 278/825/207 274/826/207 275/827/207 279/828/207
f 277/829/208 276/830/208 280/831/208 281/832/208
usemtl ball_mill
f 276/833/209 274/834/209 278/835/209 280/836/209
f 279/837/210 275/838/210 277/839/210 281/840/210
f 283/841/211 282/842/211 284/843/211 285/844/211
f 288/845/212 286/846/212 287/847/212 289/848/212
usemtl multiblock_base
f 286/849/213 282/850/213 283/851/213 287/852/213
f 285/853/214 284/854/214 288/855/214 289/856/214
usemtl ball_mill
f 284/857/215 282/858/215 286/859/215 288/860/215
f 287/861/216 283/862/216 285/863/216 289/864/216
f 291/865/217 290/866/217 292/867/217 293/868/217
f 296/869/218 294/870/218 295/871/218 297/872/218
f 294/873/219 290/874/219 291/875/219 295/876/219
f 293/877/220 292/878/220 296/879/220 297/880/220
f 292/881/221 290/882/221 294/883/221 296/884/221
f 295/885/222 291/886/222 293/887/222 297/888/222
f 299/889/223 298/890/223 300/891/223 301/892/223
f 304/893/224 302/894/224 303/895/224 305/896/224
f 302/897/225 298/898/225 299/899/225 303/900/225
f 301/901/226 300/902/226 304/903/226 305/904/226
f 300/905/227 298/906/227 302/907/227 304/908/227
f 303/909/228 299/910/228 301/911/228 305/912/228
f 308/913/229 306/914/229 307/915/229 309/916/229
f 311/917/230 310/918/230 312/919/230 313/920/230
f 307/921/231 306/922/231 310/923/231 311/924/231
f 312/925/232 308/926/232 309/927/232 313/928/232
f 310/929/233 306/930/233 308/931/233 312/932/233
f 309/933/234 307/934/234 311/935/234 313/936/234
f 1/937/235 314/938/235 315/939/235 316/940/235
f 319/941/236 317/942/236 318/943/236 320/944/236
f 317/945/237 314/946/237 1/947/237 318/948/237
f 316/949/238 315/950/238 319/951/238 320/952/238
f 315/953/239 314/954/239 317/955/239 319/956/239
f 318/957/240 1/958/240 316/959/240 320/960/240
usemtl multiblock_base
f 322/961/241 321/962/241 323/963/241 324/964/241
f 327/965/242 325/966/242 326/967/242 328/968/242
f 325/969/243 321/970/243 322/971/243 326/972/243
f 324/973/244 323/974/244 327/975/244 328/976/244
f 323/977/245 321/978/245 325/979/245 327/980/245
f 326/981/246 322/982/246 324/983/246 328/984/246
usemtl ball_mill
f 330/985/247 329/986/247 331/987/247 332/988/247
f 335/989/248 333/990/248 334/991/248 336/992/248
f 333/993/249 329/994/249 330/995/249 334/996/249
f 332/997/250 331/998/250 335/999/250 336/1000/250
f 331/1001/251 329/1002/251 333/1003/251 335/1004/251
f 334/1005/252 330/1006/252 332/1007/252 336/1008/252
usemtl multiblock_components
f 338/1009/253 337/1010/253 339/1011/253 340/1012/253
f 343/1013/254 341/1014/254 342/1015/254 344/1016/254
usemtl none
f 341/1017/255 337/1018/255 338/1019/255 342/1020/255
f 340/1021/256 339/1022/256 343/1023/256 344/1024/256
usemtl multiblock_components
f 339/1025/257 337/1026/257 341/1027/257 343/1028/257
f 342/1029/258 338/1030/258 340/1031/258 344/1032/258
f 346/1033/259 345/1034/259 347/1035/259 348/1036/259
f 351/1037/260 349/1038/260 350/1039/260 352/1040/260
f 349/1041/261 345/1042/261 346/1043/261 350/1044/261
f 348/1045/262 347/1046/262 351/1047/262 352/1048/262
f 347/1049/263 345/1050/263 349/1051/263 351/1052/263
f 350/1053/264 346/1054/264 348/1055/264 352/1056/264
usemtl multiblock_base
f 354/1057/265 353/1058/265 355/1059/265 356/1060/265
f 359/1061/266 357/1062/266 358/1063/266 360/1064/266
f 357/1065/267 353/1066/267 354/1067/267 358/1068/267
f 356/1069/268 355/1070/268 359/1071/268 360/1072/268
f 355/1073/269 353/1074/269 357/1075/269 359/1076/269
usemtl multiblock_components
f 358/1077/270 354/1078/270 356/1079/270 360/1080/270