# Made in Blockbench 5.0.7
mtllib flotation_cell.mtl

o mesh
v 3 -1 -1
v 1 2 3
v 1 2 2.5
v 1 1 3
v 1 1 2.5
v 0 2 3
v 0 2 2.5
v 0 1 3
v 0 1 2.5
v 3 0 1
v 3 0 0
v 3 -1 1
v 3 -1 0
v 2 0 1
v 2 0 0
v 2 -1 1
v 2 -1 0
v 1 2 -0.5
v 1 2 -1
v 1 1 -0.5
v 1 1 -1
v 0 2 -0.5
v 0 2 -1
v 0 1 -0.5
v 0 1 -1
v 1 4 0
v 1 4 -1
v 1 3 0
v 1 3 -1
v 0 4 0
v 0 4 -1
v 0 3 0
v 0 3 -1
v -1 0 1
v -1 0 0
v -1 -1 1
v -1 -1 0
v -2 0 1
v -2 0 0
v -2 -1 1
v -2 -1 0
v 1 1 3
v 1 1 2.5
v 1 0 3
v 1 0 2.5
v 0 1 3
v 0 1 2.5
v 0 0 3
v 0 0 2.5
v 0.25 0 2.875
v 0.25 0 2.625
v 0.25 -0.5 2.875
v 0.25 -0.5 2.625
v 0.125 0 2.875
v 0.125 0 2.625
v 0.125 -0.5 2.875
v 0.125 -0.5 2.625
v 0.875 0 2.875
v 0.875 0 2.625
v 0.875 -0.5 2.875
v 0.875 -0.5 2.625
v 0.75 0 2.875
v 0.75 0 2.625
v 0.75 -0.5 2.875
v 0.75 -0.5 2.625
v 2.75 2 -0.25
v 2.75 2 -0.75
v 2.75 -0.5 -0.25
v 2.75 -0.5 -0.75
v 3 2 -0.25
v 3 2 -0.75
v 3 -0.5 -0.25
v 3 -0.5 -0.75
v -1 2 -0.75
v -1 2 -1
v -1 -0.5 -0.75
v -1 -0.5 -1
v -2 2 -0.75
v -2 2 -1
v -2 -0.5 -0.75
v -2 -0.5 -1
v -1.75 2 -0.25
v -1.75 2 -0.75
v -1.75 -0.5 -0.25
v -1.75 -0.5 -0.75
v -2 2 -0.25
v -2 2 -0.75
v -2 -0.5 -0.25
v -2 -0.5 -0.75
v -1.75 2.25 3
v -1.75 2.25 2.5
v -1.75 -0.5 3
v -1.75 -0.5 2.5
v -2 2.25 3
v -2 2.25 2.5
v -2 -0.5 3
v -2 -0.5 2.5
v -1.6875 1.9375000000000004 -0.25
v -1.6875 1.4375000000000002 -0.25
v -1.6875 1.9374999999999998 2.5
v -1.6875 1.4374999999999996 2.5
v -1.9375 1.9375000000000004 -0.25
v -1.9375 1.4375000000000002 -0.25
v -1.9375 1.9374999999999998 2.5
v -1.9375 1.4374999999999996 2.5
v -1.6875 0.7500000000000003 -0.25
v -1.6875 0.25000000000000033 -0.25
v -1.6875 0.7499999999999997 2.5
v -1.6875 0.24999999999999956 2.5
v -1.9375 0.7500000000000003 -0.25
v -1.9375 0.25000000000000033 -0.25
v -1.9375 0.7499999999999997 2.5
v -1.9375 0.24999999999999956 2.5
v 2.6875 0.7500000000000003 -0.25
v 2.6875 0.25000000000000033 -0.25
v 2.6875 0.7499999999999997 2.5
v 2.6875 0.24999999999999956 2.5
v 2.9375 0.7500000000000003 -0.25
v 2.9375 0.25000000000000033 -0.25
v 2.9375 0.7499999999999997 2.5
v 2.9375 0.24999999999999956 2.5
v 2.68125 1.9375000000000004 -0.25
v 2.68125 1.4375000000000002 -0.25
v 2.68125 1.9374999999999998 2.5
v 2.68125 1.4374999999999996 2.5
v 2.93125 1.9375000000000004 -0.25
v 2.93125 1.4375000000000002 -0.25
v 2.93125 1.9374999999999998 2.5
v 2.93125 1.4374999999999996 2.5
v 0 1 2.9375
v 0 1 2.75
v 0 0.625 2.9375
v 0 0.625 2.75
v -1.75 1 2.9375
v -1.75 1 2.75
v -1.75 0.625 2.9375
v -1.75 0.625 2.75
v 2.75 1 2.9375
v 2.75 1 2.75
v 2.75 0.625 2.9375
v 2.75 0.625 2.75
v 1 1 2.9375
v 1 1 2.75
v 1 0.625 2.9375
v 1 0.625 2.75
v 0 0.375 2.9375
v 0 0.375 2.75
v 0 0 2.9375
v 0 0 2.75
v -1.75 0.375 2.9375
v -1.75 0.375 2.75
v -1.75 0 2.9375
v -1.75 0 2.75
v 2.75 0.375 2.9375
v 2.75 0.375 2.75
v 2.75 0 2.9375
v 2.75 0 2.75
v 1 0.375 2.9375
v 1 0.375 2.75
v 1 0 2.9375
v 1 0 2.75
v -1.625 2.2788154964224088 1.0868737581808166
v -1.625 2.4555921917190453 0.9100970628841796
v -1.625 0.952990281697632 -0.2389514565439601
v -1.625 1.1297669769942689 -0.4157281518405971
v -1.875 2.2788154964224088 1.0868737581808166
v -1.875 2.4555921917190453 0.9100970628841796
v -1.875 0.952990281697632 -0.2389514565439601
v -1.875 1.1297669769942689 -0.4157281518405971
v 2.625 2.2788154964224088 1.0868737581808166
v 2.625 2.4555921917190453 0.9100970628841796
v 2.625 0.952990281697632 -0.2389514565439601
v 2.625 1.1297669769942689 -0.4157281518405971
v 2.875 2.2788154964224088 1.0868737581808166
v 2.875 2.4555921917190453 0.9100970628841796
v 2.875 0.952990281697632 -0.2389514565439601
v 2.875 1.1297669769942689 -0.4157281518405971
v -1.625 2.2788154964224088 1.1631262418191834
v -1.625 2.4555921917190453 1.3399029371158204
v -1.625 0.952990281697632 2.48895145654396
v -1.625 1.1297669769942689 2.665728151840597
v -1.875 2.2788154964224088 1.1631262418191834
v -1.875 2.4555921917190453 1.3399029371158204
v -1.875 0.952990281697632 2.48895145654396
v -1.875 1.1297669769942689 2.665728151840597
v -1.75 1.7042912367083387 1.5608738062366165
v -1.75 2.0578446273016127 1.9144271968298903
v -1.75 1.350737846115065 1.9144271968298903
v -1.75 1.7042912367083387 2.267980587423164
v -2 1.7042912367083387 1.5608738062366165
v -2 2.0578446273016127 1.9144271968298903
v -2 1.350737846115065 1.9144271968298903
v -2 1.7042912367083387 2.267980587423164
v 2.75 1.7042912367083387 1.5608738062366165
v 2.75 2.0578446273016127 1.9144271968298903
v 2.75 1.350737846115065 1.9144271968298903
v 2.75 1.7042912367083387 2.267980587423164
v 3 1.7042912367083387 1.5608738062366165
v 3 2.0578446273016127 1.9144271968298903
v 3 1.350737846115065 1.9144271968298903
v 3 1.7042912367083387 2.267980587423164
v 2.8125 1.7042912367083387 1.2073204156433428
v 2.8125 2.411398017894886 1.91442719682989
v 2.8125 0.9971844555217911 1.9144271968298903
v 2.8125 1.7042912367083387 2.621533978016438
v 2.9375 1.7042912367083387 1.2073204156433428
v 2.9375 2.411398017894886 1.91442719682989
v 2.9375 0.9971844555217911 1.9144271968298903
v 2.9375 1.7042912367083387 2.621533978016438
v 2.7875 2.103030212588305 -0.3123733560592896
v 2.7875 2.396714145083421 1.9183775820317834
v 2.7875 1.9790996049165788 -0.296057582031783
v 2.7875 2.2727835374116947 1.93469335605929
v 2.9125 2.103030212588305 -0.3123733560592896
v 2.9125 2.396714145083421 1.9183775820317834
v 2.9125 1.9790996049165788 -0.296057582031783
v 2.9125 2.2727835374116947 1.93469335605929
v 2.7875 1.4443185200834212 -0.296057582031783
v 2.7875 1.1506345875883053 1.93469335605929
v 2.7875 1.3203879124116948 -0.3123733560592896
v 2.7875 1.026703979916579 1.9183775820317834
v 2.9125 1.4443185200834212 -0.296057582031783
v 2.9125 1.1506345875883053 1.93469335605929
v 2.9125 1.3203879124116948 -0.3123733560592896
v 2.9125 1.026703979916579 1.9183775820317834
v 2.75 2.25 3
v 2.75 2.25 2.5
v 2.75 -0.5 3
v 2.75 -0.5 2.5
v 3 2.25 3
v 3 2.25 2.5
v 3 -0.5 3
v 3 -0.5 2.5
v 2.625 2.2788154964224088 1.1631262418191834
v 2.625 2.4555921917190453 1.3399029371158204
v 2.625 0.952990281697632 2.48895145654396
v 2.625 1.1297669769942689 2.665728151840597
v 2.875 2.2788154964224088 1.1631262418191834
v 2.875 2.4555921917190453 1.3399029371158204
v 2.875 0.952990281697632 2.48895145654396
v 2.875 1.1297669769942689 2.665728151840597
v 2 2 -0.75
v 2 2 -1
v 2 -0.5 -0.75
v 2 -0.5 -1
v 3 2 -0.75
v 3 2 -1
v 3 -0.5 -0.75
v 3 -0.5 -1
v -1 1.5 -0.5
v -1 1.5 -1
v -1 -0.5 -0.5
v -1 -0.5 -1
v 0 1.5 -0.5
v 0 1.5 -1
v 0 -0.5 -0.5
v 0 -0.5 -1
v 2 1.5 -0.5
v 2 1.5 -1
v 2 -0.5 -0.5
v 2 -0.5 -1
v 1 1.5 -0.5
v 1 1.5 -1
v 1 -0.5 -0.5
v 1 -0.5 -1
v 1 1 -0.5
v 1 1 -1
v 1 -0.5 -0.5
v 1 -0.5 -1
v 0 1 -0.5
v 0 1 -1
v 0 -0.5 -0.5
v 0 -0.5 -1
v 1.25 0.5 1.25
v 1.25 0.5 -0.25
v 1.25 -0.25 1.25
v 1.25 -0.25 -0.25
v -0.25 0.5 1.25
v -0.25 0.5 -0.25
v -0.25 -0.25 1.25
v -0.25 -0.25 -0.25
v 0.75 3.5 0.75
v 0.75 3.5 0.25
v 0.75 0.5 0.75
v 0.75 0.5 0.25
v 0.25 3.5 0.75
v 0.25 3.5 0.25
v 0.25 0.5 0.75
v 0.25 0.5 0.25
v 1.125 3.875 1.125
v 1.125 3.875 -0.125
v 1.125 3.625 1.125
v 1.125 3.625 -0.125
v -0.125 3.875 1.125
v -0.125 3.875 -0.125
v -0.125 3.625 1.125
v -0.125 3.625 -0.125
v 1 4 1
v 1 4 0
v 1 3.5 1
v 1 3.5 0
v 0 4 1
v 0 4 0
v 0 3.5 1
v 0 3.5 0
v -1 3 0
v -1 3 -1
v -1 2 0
v -1 2 -1
v -2 3 0
v -2 3 -1
v -2 2 0
v -2 2 -1
v 0 3 0
v 0 3 -1
v 0 2 0
v 0 2 -1
v -1 3 0
v -1 3 -1
v -1 2 0
v -1 2 -1
v 1 3 0
v 1 3 -1
v 1 2 0
v 1 2 -1
v 0 3 0
v 0 3 -1
v 0 2 0
v 0 2 -1
v 2 3 0
v 2 3 -1
v 2 2 0
v 2 2 -1
v 1 3 0
v 1 3 -1
v 1 2 0
v 1 2 -1
v 3 3 0
v 3 3 -1
v 3 2 0
v 3 2 -1
v 2 3 0
v 2 3 -1
v 2 2 0
v 2 2 -1
v -1 2.5 2
v -1 2.5 0
v -1 2.25 2
v -1 2.25 0
v -2 2.5 2
v -2 2.5 0
v -2 2.25 2
v -2 2.25 0
v 0 2.5 2
v 0 2.5 0
v 0 2.25 2
v 0 2.25 0
v -1 2.5 2
v -1 2.5 0
v -1 2.25 2
v -1 2.25 0
v 2 2.5 2
v 2 2.5 0
v 2 2.25 2
v 2 2.25 0
v 3 2.5 2
v 3 2.5 0
v 3 2.25 2
v 3 2.25 0
v 1 2.5 2
v 1 2.5 0
v 1 2.25 2
v 1 2.25 0
v 2 2.5 2
v 2 2.5 0
v 2 2.25 2
v 2 2.25 0
v -1 2.5 3
v -1 2.5 2
v -1 2.25 3
v -1 2.25 2
v -2 2.5 3
v -2 2.5 2
v -2 2.25 3
v -2 2.25 2
v 0 2.5 3
v 0 2.5 2
v 0 2.25 3
v 0 2.25 2
v -1 2.5 3
v -1 2.5 2
v -1 2.25 3
v -1 2.25 2
v 1 2.5 1
v 1 2.5 2
v 1 2.25 1
v 1 2.25 2
v 0 2.5 1
v 0 2.5 2
v 0 2.25 1
v 0 2.25 2
v 1 2.5 3
v 1 2.5 2
v 1 2.25 3
v 1 2.25 2
v 0 2.5 3
v 0 2.5 2
v 0 2.25 3
v 0 2.25 2
v 2 2.5 3
v 2 2.5 2
v 2 2.25 3
v 2 2.25 2
v 1 2.5 3
v 1 2.5 2
v 1 2.25 3
v 1 2.25 2
v 3 2.5 3
v 3 2.5 2
v 3 2.25 3
v 3 2.25 2
v 2 2.5 3
v 2 2.5 2
v 2 2.25 3
v 2 2.25 2
v -1 -0.5 0
v -1 -0.5 -1
v -1 -1 0
v -1 -1 -1
v -2 -0.5 0
v -2 -0.5 -1
v -2 -1 0
v -2 -1 -1
v 2 -0.5 0
v 2 -0.5 -1
v 2 -1 0
v 2 -1 -1
v 3 -0.5 0
v 3 -0.5 -1
v 3 -1 0
v -1 -0.5 2
v -1 -0.5 1
v -1 -1 2
v -1 -1 1
v -2 -0.5 2
v -2 -0.5 1
v -2 -1 2
v -2 -1 1
v 2 -0.5 2
v 2 -0.5 1
v 2 -1 2
v 2 -1 1
v 3 -0.5 2
v 3 -0.5 1
v 3 -1 2
v 3 -1 1
v 3 -0.5 3
v 3 -0.5 2
v 3 -1 3
v 3 -1 2
v -2 -0.5 3
v -2 -0.5 2
v -2 -1 3
v -2 -1 2
v 2 -0.5 2
v 2 -0.5 -1
v 2 -1 2
v 2 -1 -1
v -1 -0.5 2
v -1 -0.5 -1
v -1 -1 2
v -1 -1 -1
v 2.5 -0.25 2
v 2.5 -0.25 -0.25
v 2.5 -0.5 2
v 2.5 -0.5 -0.25
v -1.5 -0.25 2
v -1.5 -0.25 -0.25
v -1.5 -0.5 2
v -1.5 -0.5 -0.25
v -1.5 1 2.25
v -1.5 1 2
v -1.5 -0.5 2.25
v -1.5 -0.5 2
v 2.5 1 2.25
v 2.5 1 2
v 2.5 -0.5 2.25
v 2.5 -0.5 2
v -1.5 0.875 -0.25
v -1.5 0.875 -0.5
v -1.5 -0.5 -0.25
v -1.5 -0.5 -0.5
v 2.5 0.875 -0.25
v 2.5 0.875 -0.5
v 2.5 -0.5 -0.25
v 2.5 -0.5 -0.5
v -1.5 2.0625 -0.25
v -1.5 2.0625 -0.5
v -1.5 0.875 -0.25
v -1.5 0.875 -0.5
v 2.5 2.0625 -0.25
v 2.5 2.0625 -0.5
v 2.5 0.875 -0.25
v 2.5 0.875 -0.5
v 2.5 0.875 2.25
v 2.5 0.875 -0.5
v 2.5 -0.5 2.25
v 2.5 -0.5 -0.5
v 2.75 0.875 2.25
v 2.75 0.875 -0.5
v 2.75 -0.5 2.25
v 2.75 -0.5 -0.5
v 2.5 2.0625 2.875
v 2.5 2.0625 -0.5
v 2.5 0.875 2.875
v 2.5 0.875 -0.5
v 2.75 2.0625 2.875
v 2.75 2.0625 -0.5
v 2.75 0.875 2.875
v 2.75 0.875 -0.5
v -1.5 2.0625 2.875
v -1.5 2.0625 -0.5
v -1.5 0.875 2.875
v -1.5 0.875 -0.5
v -1.75 2.0625 2.875
v -1.75 2.0625 -0.5
v -1.75 0.875 2.875
v -1.75 0.875 -0.5
v -1.5 0.875 2.25
v -1.5 0.875 -0.5
v -1.5 -0.5 2.25
v -1.5 -0.5 -0.5
v -1.75 0.875 2.25
v -1.75 0.875 -0.5
v -1.75 -0.5 2.25
v -1.75 -0.5 -0.5
v -1.5 2.074524375 2.9280775
v -1.5 2.074524375 2.6780775
v -1.5 1.574524375 2.9280775
v -1.5 1.574524375 2.6780775
v 2.5 2.074524375 2.9280775
v 2.5 2.074524375 2.6780775
v 2.5 1.574524375 2.9280775
v 2.5 1.574524375 2.6780775
v -1.5 1.5745242167691147 2.9280777870657513
v -1.5 1.7513009120657514 2.7513010917691147
v -1.5 0.8232232617584079 2.1767768320550447
v -1.5 0.9999999570550449 2.0000001367584077
v 2.5 1.5745242167691147 2.9280777870657513
v 2.5 1.7513009120657514 2.7513010917691147
v 2.5 0.8232232617584079 2.1767768320550447
v 2.5 0.9999999570550449 2.0000001367584077
vt 0.8125 0.25
vt 0.75 0.25
vt 0.75 0.125
vt 0.8125 0.125
vt 0.875 0.125
vt 0.875 0.25
vt 0.8125 0.25
vt 0.8125 0.125
vt 0.75 0.125
vt 0.875 0.125
vt 0.875 0.1875
vt 0.75 0.1875
vt 0.875 0.1875
vt 0.875 0.25
vt 0.75 0.25
vt 0.75 0.1875
vt 0.5 0.625
vt 0.5 0.75
vt 0.375 0.75
vt 0.375 0.625
vt 0.875 0.25
vt 0.75 0.25
vt 0.75 0.125
vt 0.875 0.125
vt 0.5 0.75
vt 0.375 0.75
vt 0.375 0.625
vt 0.5 0.625
vt 1 0.125
vt 1 0.25
vt 0.875 0.25
vt 0.875 0.125
vt 0.875 0.125
vt 1 0.125
vt 1 0.25
vt 0.875 0.25
vt 0.625 0.375
vt 0.625 0.5
vt 0.5 0.5
vt 0.5 0.375
vt 1 0.125
vt 1 0.25
vt 0.875 0.25
vt 0.875 0.125
vt 1 0.25
vt 0.875 0.25
vt 0.875 0.125
vt 1 0.125
vt 0.9375 0.25
vt 1 0.25
vt 1 0.125
vt 0.9375 0.125
vt 0.875 0.125
vt 0.875 0.25
vt 0.9375 0.25
vt 0.9375 0.125
vt 0.875 0.25
vt 1 0.25
vt 1 0.1875
vt 0.875 0.1875
vt 1 0.1875
vt 1 0.125
vt 0.875 0.125
vt 0.875 0.1875
vt 0.875 0.125
vt 1 0.125
vt 1 0.25
vt 0.875 0.25
vt 0.5 0.875
vt 0.375 0.875
vt 0.375 0.75
vt 0.5 0.75
vt 0.25 0.875
vt 0.25 0.75
vt 0.375 0.75
vt 0.375 0.875
vt 0.375 0.875
vt 0.25 0.875
vt 0.25 0.75
vt 0.375 0.75
vt 0 0.375
vt 0.125 0.375
vt 0.125 0.5
vt 0 0.5
vt 0.625 0.75
vt 0.625 0.875
vt 0.5 0.875
vt 0.5 0.75
vt 0.375 0.875
vt 0.25 0.875
vt 0.25 0.75
vt 0.375 0.75
vt 0.25 0.875
vt 0.25 0.75
vt 0.375 0.75
vt 0.375 0.875
vt 1 0.25
vt 0.875 0.25
vt 0.875 0.125
vt 1 0.125
vt 0.5 0.75
vt 0.5 0.875
vt 0.375 0.875
vt 0.375 0.75
vt 0.875 0.125
vt 1 0.125
vt 1 0.25
vt 0.875 0.25
vt 0.125 0.3671875
vt 0.125 0.4921875
vt 0 0.4921875
vt 0 0.3671875
vt 1 0.125
vt 1 0.25
vt 0.875 0.25
vt 0.875 0.125
vt 1 0.25
vt 0.875 0.25
vt 0.875 0.125
vt 1 0.125
vt 1 0.25
vt 0.9375 0.25
vt 0.9375 0.125
vt 1 0.125
vt 0.9375 0.125
vt 0.9375 0.25
vt 0.875 0.25
vt 0.875 0.125
vt 0.875 0.1875
vt 1 0.1875
vt 1 0.25
vt 0.875 0.25
vt 1 0.125
vt 1 0.1875
vt 0.875 0.1875
vt 0.875 0.125
vt 0.875 0.5
vt 0.875 0.625
vt 0.75 0.625
vt 0.75 0.5
vt 1 0.25
vt 0.875 0.25
vt 0.875 0.125
vt 1 0.125
vt 0.75 0.5625
vt 0.71875 0.5625
vt 0.71875 0.5
vt 0.75 0.5
vt 0.75 0.5
vt 0.75 0.5625
vt 0.71875 0.5625
vt 0.71875 0.5
vt 0.65625 0.453125
vt 0.671875 0.453125
vt 0.671875 0.484375
vt 0.65625 0.484375
vt 0.671875 0.453125
vt 0.671875 0.484375
vt 0.65625 0.484375
vt 0.65625 0.453125
vt 0.71875 0.5
vt 0.71875 0.5625
vt 0.703125 0.5625
vt 0.703125 0.5
vt 0.71875 0.5625
vt 0.703125 0.5625
vt 0.703125 0.5
vt 0.71875 0.5
vt 0.75 0.5625
vt 0.71875 0.5625
vt 0.71875 0.5
vt 0.75 0.5
vt 0.75 0.5
vt 0.75 0.5625
vt 0.71875 0.5625
vt 0.71875 0.5
vt 0.65625 0.453125
vt 0.671875 0.453125
vt 0.671875 0.484375
vt 0.65625 0.484375
vt 0.671875 0.453125
vt 0.671875 0.484375
vt 0.65625 0.484375
vt 0.65625 0.453125
vt 0.71875 0.5
vt 0.71875 0.5625
vt 0.703125 0.5625
vt 0.703125 0.5
vt 0.71875 0.5625
vt 0.703125 0.5625
vt 0.703125 0.5
vt 0.71875 0.5
vt 0.71875 1
vt 0.40625 1
vt 0.40625 0.9375
vt 0.71875 0.9375
vt 0.71875 0.9375
vt 0.71875 1
vt 0.40625 1
vt 0.40625 0.9375
vt 0.734375 0.9375
vt 0.734375 1
vt 0.703125 1
vt 0.703125 0.9375
vt 0.734375 1
vt 0.703125 1
vt 0.703125 0.9375
vt 0.734375 0.9375
vt 0.71875 0.90625
vt 0.71875 0.9375
vt 0.40625 0.9375
vt 0.40625 0.90625
vt 0.71875 0.9375
vt 0.40625 0.9375
vt 0.40625 0.90625
vt 0.71875 0.90625
vt 0.40625 0.9375
vt 0.40625 0.90625
vt 0.71875 0.90625
vt 0.71875 0.9375
vt 0.71875 0.9375
vt 0.40625 0.9375
vt 0.40625 0.90625
vt 0.71875 0.90625
vt 0.515625 0.90625
vt 0.640625 0.90625
vt 0.640625 0.9375
vt 0.515625 0.9375
vt 0.640625 0.90625
vt 0.640625 0.9375
vt 0.515625 0.9375
vt 0.515625 0.90625
vt 0.125 0.5703125
vt 0.125 0.8828125
vt 0 0.8828125
vt 0 0.5703125
vt 0.125 0.8828125
vt 0 0.8828125
vt 0 0.5703125
vt 0.125 0.5703125
vt 0.40625 1
vt 0.40625 0.9375
vt 0.71875 0.9375
vt 0.71875 1
vt 0.71875 1
vt 0.40625 1
vt 0.40625 0.9375
vt 0.71875 0.9375
vt 0.734375 1
vt 0.703125 1
vt 0.703125 0.9375
vt 0.734375 0.9375
vt 0.703125 1
vt 0.703125 0.9375
vt 0.734375 0.9375
vt 0.734375 1
vt 0.71875 0.9375
vt 0.40625 0.9375
vt 0.40625 0.90625
vt 0.71875 0.90625
vt 0.40625 0.9375
vt 0.40625 0.90625
vt 0.71875 0.90625
vt 0.71875 0.9375
vt 0.734375 0.9375
vt 0.734375 1
vt 0.390625 1
vt 0.390625 0.9375
vt 0.390625 0.9375
vt 0.734375 0.9375
vt 0.734375 1
vt 0.390625 1
vt 0.703125 0.9375
vt 0.734375 0.9375
vt 0.734375 1
vt 0.703125 1
vt 0.734375 0.9375
vt 0.734375 1
vt 0.703125 1
vt 0.703125 0.9375
vt 0.734375 0.9375
vt 0.390625 0.9375
vt 0.390625 0.90625
vt 0.734375 0.90625
vt 0.390625 0.9375
vt 0.390625 0.90625
vt 0.734375 0.90625
vt 0.734375 0.9375
vt 0.734375 0.9375
vt 0.734375 1
vt 0.390625 1
vt 0.390625 0.9375
vt 0.390625 0.9375
vt 0.734375 0.9375
vt 0.734375 1
vt 0.390625 1
vt 0.703125 0.9375
vt 0.734375 0.9375
vt 0.734375 1
vt 0.703125 1
vt 0.734375 0.9375
vt 0.734375 1
vt 0.703125 1
vt 0.703125 0.9375
vt 0.734375 0.9375
vt 0.390625 0.9375
vt 0.390625 0.90625
vt 0.734375 0.90625
vt 0.390625 0.9375
vt 0.390625 0.90625
vt 0.734375 0.90625
vt 0.734375 0.9375
vt 0.734375 0.9375
vt 0.734375 1
vt 0.390625 1
vt 0.390625 0.9375
vt 0.390625 0.9375
vt 0.734375 0.9375
vt 0.734375 1
vt 0.390625 1
vt 0.703125 0.9375
vt 0.734375 0.9375
vt 0.734375 1
vt 0.703125 1
vt 0.734375 0.9375
vt 0.734375 1
vt 0.703125 1
vt 0.703125 0.9375
vt 0.734375 0.9375
vt 0.390625 0.9375
vt 0.390625 0.90625
vt 0.734375 0.90625
vt 0.390625 0.9375
vt 0.390625 0.90625
vt 0.734375 0.90625
vt 0.734375 0.9375
vt 0.390625 1
vt 0.734375 1
vt 0.734375 0.9375
vt 0.390625 0.9375
vt 0.734375 1
vt 0.734375 0.9375
vt 0.390625 0.9375
vt 0.390625 1
vt 0.734375 1
vt 0.734375 0.9375
vt 0.703125 0.9375
vt 0.703125 1
vt 0.703125 1
vt 0.734375 1
vt 0.734375 0.9375
vt 0.703125 0.9375
vt 0.390625 0.90625
vt 0.390625 0.9375
vt 0.734375 0.9375
vt 0.734375 0.90625
vt 0.734375 0.90625
vt 0.390625 0.90625
vt 0.390625 0.9375
vt 0.734375 0.9375
vt 0.390625 1
vt 0.734375 1
vt 0.734375 0.9375
vt 0.390625 0.9375
vt 0.734375 1
vt 0.734375 0.9375
vt 0.390625 0.9375
vt 0.390625 1
vt 0.734375 1
vt 0.734375 0.9375
vt 0.703125 0.9375
vt 0.703125 1
vt 0.703125 1
vt 0.734375 1
vt 0.734375 0.9375
vt 0.703125 0.9375
vt 0.390625 0.90625
vt 0.390625 0.9375
vt 0.734375 0.9375
vt 0.734375 0.90625
vt 0.734375 0.90625
vt 0.390625 0.90625
vt 0.390625 0.9375
vt 0.734375 0.9375
vt 0.390625 1
vt 0.3671875 1
vt 0.3671875 0.953125
vt 0.390625 0.953125
vt 0.390625 0.953125
vt 0.390625 1
vt 0.3671875 1
vt 0.3671875 0.953125
vt 0 0.9296875
vt 0.21875 0.9296875
vt 0.21875 0.953125
vt 0 0.953125
vt 0.21875 0.9296875
vt 0.21875 0.953125
vt 0 0.953125
vt 0 0.9296875
vt 0.21875 0.8828125
vt 0.21875 0.9296875
vt 0 0.9296875
vt 0 0.8828125
vt 0.21875 0.9296875
vt 0 0.9296875
vt 0 0.8828125
vt 0.21875 0.8828125
vt 0.390625 1
vt 0.3671875 1
vt 0.3671875 0.953125
vt 0.390625 0.953125
vt 0.390625 0.953125
vt 0.390625 1
vt 0.3671875 1
vt 0.3671875 0.953125
vt 0 0.9296875
vt 0.21875 0.9296875
vt 0.21875 0.953125
vt 0 0.953125
vt 0.21875 0.9296875
vt 0.21875 0.953125
vt 0 0.953125
vt 0 0.9296875
vt 0.21875 0.8828125
vt 0.21875 0.9296875
vt 0 0.9296875
vt 0 0.8828125
vt 0.21875 0.9296875
vt 0 0.9296875
vt 0 0.8828125
vt 0.21875 0.8828125
vt 0.390625 1
vt 0.3671875 1
vt 0.3671875 0.953125
vt 0.390625 0.953125
vt 0.390625 0.953125
vt 0.390625 1
vt 0.3671875 1
vt 0.3671875 0.953125
vt 0 0.9296875
vt 0.21875 0.9296875
vt 0.21875 0.953125
vt 0 0.953125
vt 0.21875 0.9296875
vt 0.21875 0.953125
vt 0 0.953125
vt 0 0.9296875
vt 0.21875 0.8828125
vt 0.21875 0.9296875
vt 0 0.9296875
vt 0 0.8828125
vt 0.21875 0.9296875
vt 0 0.9296875
vt 0 0.8828125
vt 0.21875 0.8828125
vt 0.390625 1
vt 0.3671875 1
vt 0.3671875 0.953125
vt 0.390625 0.953125
vt 0.390625 0.953125
vt 0.390625 1
vt 0.3671875 1
vt 0.3671875 0.953125
vt 0 0.9296875
vt 0.21875 0.9296875
vt 0.21875 0.953125
vt 0 0.953125
vt 0.21875 0.9296875
vt 0.21875 0.953125
vt 0 0.953125
vt 0 0.9296875
vt 0.21875 0.8828125
vt 0.21875 0.9296875
vt 0 0.9296875
vt 0 0.8828125
vt 0.21875 0.9296875
vt 0 0.9296875
vt 0 0.8828125
vt 0.21875 0.8828125
vt 0.625 0.90625
vt 0.625 0.9375
vt 0.390625 0.9375
vt 0.390625 0.90625
vt 0.625 0.9375
vt 0.390625 0.9375
vt 0.390625 0.90625
vt 0.625 0.90625
vt 0.46875 0.90625
vt 0.46875 0.9375
vt 0.4375 0.9375
vt 0.4375 0.90625
vt 0.4375 0.90625
vt 0.46875 0.90625
vt 0.46875 0.9375
vt 0.4375 0.9375
vt 0.625 0.9375
vt 0.390625 0.9375
vt 0.390625 0.90625
vt 0.625 0.90625
vt 0.625 0.90625
vt 0.625 0.9375
vt 0.390625 0.9375
vt 0.390625 0.90625
vt 0.625 0.9375
vt 0.390625 0.9375
vt 0.390625 0.90625
vt 0.625 0.90625
vt 0.390625 0.9375
vt 0.390625 0.90625
vt 0.625 0.90625
vt 0.625 0.9375
vt 0.46875 0.9375
vt 0.4375 0.9375
vt 0.4375 0.90625
vt 0.46875 0.90625
vt 0.46875 0.90625
vt 0.46875 0.9375
vt 0.4375 0.9375
vt 0.4375 0.90625
vt 0.390625 0.9375
vt 0.390625 0.90625
vt 0.625 0.90625
vt 0.625 0.9375
vt 0.625 0.9375
vt 0.390625 0.9375
vt 0.390625 0.90625
vt 0.625 0.90625
vt 0.625 0.9375
vt 0.390625 0.9375
vt 0.390625 0.90625
vt 0.625 0.90625
vt 0.390625 0.9375
vt 0.390625 0.90625
vt 0.625 0.90625
vt 0.625 0.9375
vt 0.46875 0.9375
vt 0.4375 0.9375
vt 0.4375 0.90625
vt 0.46875 0.90625
vt 0.46875 0.90625
vt 0.46875 0.9375
vt 0.4375 0.9375
vt 0.4375 0.90625
vt 0.390625 0.9375
vt 0.390625 0.90625
vt 0.625 0.90625
vt 0.625 0.9375
vt 0.625 0.9375
vt 0.390625 0.9375
vt 0.390625 0.90625
vt 0.625 0.90625
vt 0.4375 0.8203125
vt 0.4375 0.8828125
vt 0.375 0.8828125
vt 0.375 0.8203125
vt 0.375 0.8203125
vt 0.4375 0.8203125
vt 0.4375 0.8828125
vt 0.375 0.8828125
vt 0.46875 0.8203125
vt 0.46875 0.8828125
vt 0.4375 0.8828125
vt 0.4375 0.8203125
vt 0.46875 0.8828125
vt 0.4375 0.8828125
vt 0.4375 0.8203125
vt 0.46875 0.8203125
vt 0.4375 0.8203125
vt 0.46875 0.8203125
vt 0.46875 0.8828125
vt 0.4375 0.8828125
vt 0.4375 0.8828125
vt 0.4375 0.8203125
vt 0.46875 0.8203125
vt 0.46875 0.8828125
vt 0.4375 0.8828125
vt 0.375 0.8828125
vt 0.375 0.8203125
vt 0.4375 0.8203125
vt 0.4375 0.8203125
vt 0.4375 0.8828125
vt 0.375 0.8828125
vt 0.375 0.8203125
vt 0.46875 0.8828125
vt 0.4375 0.8828125
vt 0.4375 0.8203125
vt 0.46875 0.8203125
vt 0.4375 0.8828125
vt 0.4375 0.8203125
vt 0.46875 0.8203125
vt 0.46875 0.8828125
vt 0.46875 0.8203125
vt 0.46875 0.8828125
vt 0.4375 0.8828125
vt 0.4375 0.8203125
vt 0.4375 0.8203125
vt 0.46875 0.8203125
vt 0.46875 0.8828125
vt 0.4375 0.8828125
vt 0.625 0.875
vt 0.5 0.875
vt 0.5 0.75
vt 0.625 0.75
vt 0.625 0.75
vt 0.625 0.875
vt 0.5 0.875
vt 0.5 0.75
vt 0.390625 0.90625
vt 0.390625 0.890625
vt 0.515625 0.890625
vt 0.515625 0.90625
vt 0.390625 0.890625
vt 0.515625 0.890625
vt 0.515625 0.90625
vt 0.390625 0.90625
vt 0.390625 0.890625
vt 0.515625 0.890625
vt 0.515625 0.90625
vt 0.390625 0.90625
vt 0.390625 0.90625
vt 0.390625 0.890625
vt 0.515625 0.890625
vt 0.515625 0.90625
vt 0.390625 0.890625
vt 0.671875 0.890625
vt 0.671875 0.90625
vt 0.390625 0.90625
vt 0.671875 0.890625
vt 0.671875 0.90625
vt 0.390625 0.90625
vt 0.390625 0.890625
vt 0.390625 0.90625
vt 0.390625 0.890625
vt 0.671875 0.890625
vt 0.671875 0.90625
vt 0.671875 0.90625
vt 0.390625 0.90625
vt 0.390625 0.890625
vt 0.671875 0.890625
vt 0.40625 0.890625
vt 0.40625 0.90625
vt 0.390625 0.90625
vt 0.390625 0.890625
vt 0.40625 0.90625
vt 0.390625 0.90625
vt 0.390625 0.890625
vt 0.40625 0.890625
vt 0.390625 0.890625
vt 0.671875 0.890625
vt 0.671875 0.90625
vt 0.390625 0.90625
vt 0.671875 0.890625
vt 0.671875 0.90625
vt 0.390625 0.90625
vt 0.390625 0.890625
vt 0.390625 0.90625
vt 0.390625 0.890625
vt 0.671875 0.890625
vt 0.671875 0.90625
vt 0.671875 0.90625
vt 0.390625 0.90625
vt 0.390625 0.890625
vt 0.671875 0.890625
vt 0.40625 0.890625
vt 0.40625 0.90625
vt 0.390625 0.90625
vt 0.390625 0.890625
vt 0.40625 0.90625
vt 0.390625 0.90625
vt 0.390625 0.890625
vt 0.40625 0.890625
vt 0.390625 0.9375
vt 0.734375 0.9375
vt 0.734375 1
vt 0.390625 1
vt 0.734375 0.9375
vt 0.734375 1
vt 0.390625 1
vt 0.390625 0.9375
vt 0.734375 0.9375
vt 0.734375 1
vt 0.703125 1
vt 0.703125 0.9375
vt 0.734375 1
vt 0.703125 1
vt 0.703125 0.9375
vt 0.734375 0.9375
vt 0.390625 0.9375
vt 0.390625 0.90625
vt 0.734375 0.90625
vt 0.734375 0.9375
vt 0.390625 0.90625
vt 0.734375 0.90625
vt 0.734375 0.9375
vt 0.390625 0.9375
vt 0.390625 0.9375
vt 0.390625 0.90625
vt 0.625 0.90625
vt 0.625 0.9375
vt 0.390625 0.90625
vt 0.625 0.90625
vt 0.625 0.9375
vt 0.390625 0.9375
vt 0.4375 0.9375
vt 0.4375 0.90625
vt 0.46875 0.90625
vt 0.46875 0.9375
vt 0.46875 0.9375
vt 0.4375 0.9375
vt 0.4375 0.90625
vt 0.46875 0.90625
vt 0.390625 0.90625
vt 0.625 0.90625
vt 0.625 0.9375
vt 0.390625 0.9375
vt 0.390625 0.9375
vt 0.390625 0.90625
vt 0.625 0.90625
vt 0.625 0.9375
vt 0.71875 0.9375
vt 0.40625 0.9375
vt 0.40625 0.90625
vt 0.71875 0.90625
vt 0.71875 0.90625
vt 0.71875 0.9375
vt 0.40625 0.9375
vt 0.40625 0.90625
vt 0.515625 0.9375
vt 0.515625 0.90625
vt 0.640625 0.90625
vt 0.640625 0.9375
vt 0.515625 0.90625
vt 0.640625 0.90625
vt 0.640625 0.9375
vt 0.515625 0.9375
vt 0 0.5703125
vt 0.125 0.5703125
vt 0.125 0.8828125
vt 0 0.8828125
vt 0.125 0.5703125
vt 0.125 0.8828125
vt 0 0.8828125
vt 0 0.5703125
vt 0 0.9375
vt 0 1
vt 0.125 1
vt 0.125 0.9375
vt 0 1
vt 0.125 1
vt 0.125 0.9375
vt 0 0.9375
vt 0.375 0.8203125
vt 0.375 0.7578125
vt 0.5 0.7578125
vt 0.5 0.8203125
vt 0.125 1
vt 0 1
vt 0 0.9375
vt 0.125 0.9375
vt 0.25 0.8203125
vt 0.125 0.8203125
vt 0.125 0.5703125
vt 0.25 0.5703125
vt 0.5 0.5703125
vt 0.5 0.8203125
vt 0.375 0.8203125
vt 0.375 0.5703125
vt 0.125 1
vt 0 1
vt 0 0.9375
vt 0.125 0.9375
vt 0.125 0.9375
vt 0.125 1
vt 0 1
vt 0 0.9375
vt 0.125 0.7578125
vt 0.25 0.7578125
vt 0.25 0.8203125
vt 0.125 0.8203125
vt 0.125 0.9375
vt 0.125 1
vt 0 1
vt 0 0.9375
vt 0.5 0.5703125
vt 0.5 0.8203125
vt 0.375 0.8203125
vt 0.375 0.5703125
vt 0.25 0.8203125
vt 0.125 0.8203125
vt 0.125 0.5703125
vt 0.25 0.5703125
vt 0.125 1
vt 0 1
vt 0 0.9375
vt 0.125 0.9375
vt 0.125 0.9375
vt 0.125 1
vt 0 1
vt 0 0.9375
vt 0 0.9375
vt 0.125 0.9375
vt 0.125 1
vt 0 1
vt 0.125 0.9375
vt 0.125 1
vt 0 1
vt 0 0.9375
vt 0.375 0.5703125
vt 0.375 0.7578125
vt 0.25 0.7578125
vt 0.25 0.5703125
vt 0.375 0.7578125
vt 0.25 0.7578125
vt 0.25 0.5703125
vt 0.375 0.5703125
vt 0.6484375 0.71875
vt 0.8359375 0.71875
vt 0.8359375 0.625
vt 0.6484375 0.625
vt 0.6484375 0.625
vt 0.6484375 0.71875
vt 0.8359375 0.71875
vt 0.8359375 0.625
vt 0.6484375 0.53125
vt 0.8359375 0.53125
vt 0.8359375 0.71875
vt 0.6484375 0.71875
vt 0.8359375 0.53125
vt 0.8359375 0.71875
vt 0.6484375 0.71875
vt 0.6484375 0.53125
vt 0.6484375 0.625
vt 0.6484375 0.71875
vt 0.8359375 0.71875
vt 0.8359375 0.625
vt 0.6484375 0.71875
vt 0.8359375 0.71875
vt 0.8359375 0.625
vt 0.6484375 0.625
vt 0.90625 0.921875
vt 0.84375 0.921875
vt 0.84375 0.546875
vt 0.90625 0.546875
vt 0.90625 0.546875
vt 0.90625 0.921875
vt 0.84375 0.921875
vt 0.84375 0.546875
vt 0.03125 0.90625
vt 0.09375 0.90625
vt 0.09375 0.96875
vt 0.03125 0.96875
vt 0.09375 0.90625
vt 0.09375 0.96875
vt 0.03125 0.96875
vt 0.03125 0.90625
vt 0.90625 0.546875
vt 0.90625 0.921875
vt 0.84375 0.921875
vt 0.84375 0.546875
vt 0.90625 0.921875
vt 0.84375 0.921875
vt 0.84375 0.546875
vt 0.90625 0.546875
vt 0.8359375 0.90625
vt 0.6796875 0.90625
vt 0.6796875 0.875
vt 0.8359375 0.875
vt 0.8359375 0.875
vt 0.8359375 0.90625
vt 0.6796875 0.90625
vt 0.6796875 0.875
vt 0.6796875 0.71875
vt 0.8359375 0.71875
vt 0.8359375 0.875
vt 0.6796875 0.875
vt 0.6796875 0.71875
vt 0.8359375 0.71875
vt 0.8359375 0.875
vt 0.6796875 0.875
vt 0.8359375 0.875
vt 0.8359375 0.90625
vt 0.6796875 0.90625
vt 0.6796875 0.875
vt 0.8359375 0.90625
vt 0.6796875 0.90625
vt 0.6796875 0.875
vt 0.8359375 0.875
vt 0.8671875 1
vt 0.7421875 1
vt 0.7421875 0.9375
vt 0.8671875 0.9375
vt 0.7421875 1
vt 0.7421875 0.9375
vt 0.8671875 0.9375
vt 0.8671875 1
vt 0.5 0.625
vt 0.625 0.625
vt 0.625 0.75
vt 0.5 0.75
vt 0.625 0.625
vt 0.625 0.75
vt 0.5 0.75
vt 0.5 0.625
vt 0.7421875 1
vt 0.7421875 0.9375
vt 0.8671875 0.9375
vt 0.8671875 1
vt 0.8671875 1
vt 0.7421875 1
vt 0.7421875 0.9375
vt 0.8671875 0.9375
vt 0.625 0.625
vt 0.5 0.625
vt 0.5 0.5
vt 0.625 0.5
vt 0.625 0.5
vt 0.625 0.625
vt 0.5 0.625
vt 0.5 0.5
vt 0.46875 0.4453125
vt 0.46875 0.5703125
vt 0.34375 0.5703125
vt 0.34375 0.4453125
vt 0.125 0.7578125
vt 0.125 0.8828125
vt 0 0.8828125
vt 0 0.7578125
vt 0.625 0.5
vt 0.625 0.625
vt 0.5 0.625
vt 0.5 0.5
vt 0.625 0.625
vt 0.5 0.625
vt 0.5 0.5
vt 0.625 0.5
vt 0.625 0.625
vt 0.5 0.625
vt 0.5 0.5
vt 0.625 0.5
vt 0.625 0.5
vt 0.625 0.625
vt 0.5 0.625
vt 0.5 0.5
vt 0.46875 0.4453125
vt 0.46875 0.5703125
vt 0.34375 0.5703125
vt 0.34375 0.4453125
vt 0.125 0.7578125
vt 0.125 0.8828125
vt 0 0.8828125
vt 0 0.7578125
vt 0.625 0.5
vt 0.625 0.625
vt 0.5 0.625
vt 0.5 0.5
vt 0.625 0.625
vt 0.5 0.625
vt 0.5 0.5
vt 0.625 0.5
vt 0.625 0.625
vt 0.5 0.625
vt 0.5 0.5
vt 0.625 0.5
vt 0.625 0.5
vt 0.625 0.625
vt 0.5 0.625
vt 0.5 0.5
vt 0.46875 0.4453125
vt 0.46875 0.5703125
vt 0.34375 0.5703125
vt 0.34375 0.4453125
vt 0.125 0.7578125
vt 0.125 0.8828125
vt 0 0.8828125
vt 0 0.7578125
vt 0.625 0.5
vt 0.625 0.625
vt 0.5 0.625
vt 0.5 0.5
vt 0.625 0.625
vt 0.5 0.625
vt 0.5 0.5
vt 0.625 0.5
vt 0.625 0.625
vt 0.5 0.625
vt 0.5 0.5
vt 0.625 0.5
vt 0.625 0.5
vt 0.625 0.625
vt 0.5 0.625
vt 0.5 0.5
vt 0.46875 0.4453125
vt 0.46875 0.5703125
vt 0.34375 0.5703125
vt 0.34375 0.4453125
vt 0.125 0.7578125
vt 0.125 0.8828125
vt 0 0.8828125
vt 0 0.7578125
vt 0.625 0.5
vt 0.625 0.625
vt 0.5 0.625
vt 0.5 0.5
vt 0.625 0.625
vt 0.5 0.625
vt 0.5 0.5
vt 0.625 0.5
vt 0.625 0.625
vt 0.5 0.625
vt 0.5 0.5
vt 0.625 0.5
vt 0.625 0.5
vt 0.625 0.625
vt 0.5 0.625
vt 0.5 0.5
vt 0.46875 0.4453125
vt 0.46875 0.5703125
vt 0.34375 0.5703125
vt 0.34375 0.4453125
vt 0.125 0.7578125
vt 0.125 0.8828125
vt 0 0.8828125
vt 0 0.7578125
vt 0.625 0.5
vt 0.625 0.625
vt 0.5 0.625
vt 0.5 0.5
vt 0.625 0.625
vt 0.5 0.625
vt 0.5 0.5
vt 0.625 0.5
vt 0.75 0
vt 0.75 0.25
vt 0.71875 0.25
vt 0.71875 0
vt 0.75 0.25
vt 0.71875 0.25
vt 0.71875 0
vt 0.75 0
vt 1 0
vt 0.875 0
vt 0.875 0.25
vt 1 0.25
vt 0.875 0.25
vt 0.875 0
vt 1 0
vt 1 0.25
vt 0.75 0.125
vt 0.71875 0.125
vt 0.71875 0
vt 0.75 0
vt 0.71875 0.125
vt 0.71875 0
vt 0.75 0
vt 0.75 0.125
vt 0.75 0
vt 0.75 0.25
vt 0.71875 0.25
vt 0.71875 0
vt 0.75 0.25
vt 0.71875 0.25
vt 0.71875 0
vt 0.75 0
vt 1 0
vt 0.875 0
vt 0.875 0.25
vt 1 0.25
vt 0.875 0.25
vt 0.875 0
vt 1 0
vt 1 0.25
vt 0.75 0.125
vt 0.71875 0.125
vt 0.71875 0
vt 0.75 0
vt 0.71875 0.125
vt 0.71875 0
vt 0.75 0
vt 0.75 0.125
vt 0.71875 0.25
vt 0.75 0.25
vt 0.75 0
vt 0.71875 0
vt 0.71875 0
vt 0.71875 0.25
vt 0.75 0.25
vt 0.75 0
vt 0.875 0.25
vt 0.875 0
vt 1 0
vt 1 0.25
vt 1 0
vt 0.875 0
vt 0.875 0.25
vt 1 0.25
vt 0.71875 0
vt 0.71875 0.125
vt 0.75 0.125
vt 0.75 0
vt 0.75 0
vt 0.71875 0
vt 0.71875 0.125
vt 0.75 0.125
vt 0.71875 0.25
vt 0.75 0.25
vt 0.75 0
vt 0.71875 0
vt 0.71875 0
vt 0.71875 0.25
vt 0.75 0.25
vt 0.75 0
vt 0.875 0.25
vt 0.875 0
vt 1 0
vt 1 0.25
vt 1 0
vt 0.875 0
vt 0.875 0.25
vt 1 0.25
vt 0.71875 0
vt 0.71875 0.125
vt 0.75 0.125
vt 0.75 0
vt 0.75 0
vt 0.71875 0
vt 0.71875 0.125
vt 0.75 0.125
vt 0.59375 0.03125
vt 0.46875 0.03125
vt 0.46875 0
vt 0.59375 0
vt 0.59375 0
vt 0.59375 0.03125
vt 0.46875 0.03125
vt 0.46875 0
vt 0.59375 0
vt 0.71875 0
vt 0.71875 0.125
vt 0.59375 0.125
vt 0.71875 0.125
vt 0.71875 0
vt 0.59375 0
vt 0.59375 0.125
vt 0.59375 0
vt 0.59375 0.03125
vt 0.46875 0.03125
vt 0.46875 0
vt 0.59375 0.03125
vt 0.46875 0.03125
vt 0.46875 0
vt 0.59375 0
vt 0.59375 0.03125
vt 0.46875 0.03125
vt 0.46875 0
vt 0.59375 0
vt 0.59375 0
vt 0.59375 0.03125
vt 0.46875 0.03125
vt 0.46875 0
vt 0.59375 0
vt 0.71875 0
vt 0.71875 0.125
vt 0.59375 0.125
vt 0.71875 0.125
vt 0.71875 0
vt 0.59375 0
vt 0.59375 0.125
vt 0.59375 0
vt 0.59375 0.03125
vt 0.46875 0.03125
vt 0.46875 0
vt 0.59375 0.03125
vt 0.46875 0.03125
vt 0.46875 0
vt 0.59375 0
vt 0.46875 0
vt 0.46875 0.03125
vt 0.59375 0.03125
vt 0.59375 0
vt 0.46875 0.03125
vt 0.59375 0.03125
vt 0.59375 0
vt 0.46875 0
vt 0.71875 0.125
vt 0.71875 0
vt 0.59375 0
vt 0.59375 0.125
vt 0.59375 0
vt 0.71875 0
vt 0.71875 0.125
vt 0.59375 0.125
vt 0.46875 0.03125
vt 0.59375 0.03125
vt 0.59375 0
vt 0.46875 0
vt 0.46875 0
vt 0.46875 0.03125
vt 0.59375 0.03125
vt 0.59375 0
vt 0.59375 0.03125
vt 0.46875 0.03125
vt 0.46875 0
vt 0.59375 0
vt 0.59375 0
vt 0.59375 0.03125
vt 0.46875 0.03125
vt 0.46875 0
vt 0.59375 0
vt 0.71875 0
vt 0.71875 0.125
vt 0.59375 0.125
vt 0.71875 0.125
vt 0.71875 0
vt 0.59375 0
vt 0.59375 0.125
vt 0.59375 0
vt 0.59375 0.03125
vt 0.46875 0.03125
vt 0.46875 0
vt 0.59375 0.03125
vt 0.46875 0.03125
vt 0.46875 0
vt 0.59375 0
vt 0.59375 0.03125
vt 0.46875 0.03125
vt 0.46875 0
vt 0.59375 0
vt 0.59375 0
vt 0.59375 0.03125
vt 0.46875 0.03125
vt 0.46875 0
vt 0.59375 0
vt 0.71875 0
vt 0.71875 0.125
vt 0.59375 0.125
vt 0.71875 0.125
vt 0.71875 0
vt 0.59375 0
vt 0.59375 0.125
vt 0.59375 0
vt 0.59375 0.03125
vt 0.46875 0.03125
vt 0.46875 0
vt 0.59375 0.03125
vt 0.46875 0.03125
vt 0.46875 0
vt 0.59375 0
vt 0.59375 0.03125
vt 0.46875 0.03125
vt 0.46875 0
vt 0.59375 0
vt 0.59375 0
vt 0.59375 0.03125
vt 0.46875 0.03125
vt 0.46875 0
vt 0.59375 0
vt 0.71875 0
vt 0.71875 0.125
vt 0.59375 0.125
vt 0.71875 0.125
vt 0.71875 0
vt 0.59375 0
vt 0.59375 0.125
vt 0.59375 0
vt 0.59375 0.03125
vt 0.46875 0.03125
vt 0.46875 0
vt 0.59375 0.03125
vt 0.46875 0.03125
vt 0.46875 0
vt 0.59375 0
vt 0.125 0.125
vt 0.25 0.125
vt 0.25 0.0625
vt 0.125 0.0625
vt 0.125 0
vt 0.125 0.0625
vt 0 0.0625
vt 0 0
vt 0.125 1
vt 0.125 0.875
vt 0 0.875
vt 0 1
vt 0 0.375
vt 0.125 0.375
vt 0.125 0.25
vt 0 0.25
vt 0.125 0.0625
vt 0.125 0.125
vt 0.25 0.125
vt 0.25 0.0625
vt 0.375 0.0625
vt 0.25 0.0625
vt 0.25 0
vt 0.375 0
vt 0.125 0.0625
vt 0.125 0.125
vt 0.25 0.125
vt 0.25 0.0625
vt 0 0.0625
vt 0.125 0.0625
vt 0.125 0
vt 0 0
vt 0.125 1
vt 0.125 0.875
vt 0 0.875
vt 0 1
vt 0 0.375
vt 0.125 0.375
vt 0.125 0.25
vt 0 0.25
vt 0.125 0.125
vt 0.25 0.125
vt 0.25 0.0625
vt 0.125 0.0625
vt 0.25 0
vt 0.25 0.0625
vt 0.375 0.0625
vt 0.375 0
vt 0.25 0.125
vt 0.125 0.125
vt 0.125 0.0625
vt 0.25 0.0625
vt 0.125 0.0625
vt 0.125 0.125
vt 0.25 0.125
vt 0.25 0.0625
vt 0.625 0.875
vt 0.5 0.875
vt 0.5 0.75
vt 0.625 0.75
vt 0.5 0.5
vt 0.5 0.375
vt 0.625 0.375
vt 0.625 0.5
vt 0.25 0.0625
vt 0.25 0.125
vt 0.125 0.125
vt 0.125 0.0625
vt 0.25 0.125
vt 0.125 0.125
vt 0.125 0.0625
vt 0.25 0.0625
vt 0.25 0.0625
vt 0.25 0.125
vt 0.125 0.125
vt 0.125 0.0625
vt 0.25 0.125
vt 0.125 0.125
vt 0.125 0.0625
vt 0.25 0.0625
vt 0.5 0.875
vt 0.5 0.75
vt 0.625 0.75
vt 0.625 0.875
vt 0.625 0.5
vt 0.5 0.5
vt 0.5 0.375
vt 0.625 0.375
vt 0.25 0.1328125
vt 0.125 0.1328125
vt 0.125 0.0703125
vt 0.25 0.0703125
vt 0.25 0.0625
vt 0.25 0.125
vt 0.125 0.125
vt 0.125 0.0625
vt 0.125 0.0625
vt 0 0.0625
vt 0 0
vt 0.125 0
vt 0.375 0
vt 0.375 0.0625
vt 0.25 0.0625
vt 0.25 0
vt 0 0.625
vt 0.625 0.625
vt 0.625 0.75
vt 0 0.75
vt 0.625 0.4921875
vt 0.625 0.6171875
vt 0 0.6171875
vt 0 0.4921875
vt 0.625 0.1875
vt 0.625 0.25
vt 0 0.25
vt 0 0.1875
vt 0.625 0.25
vt 0 0.25
vt 0 0.1875
vt 0.625 0.1875
vt 0.5234375 0.25
vt 0.1484375 0.25
vt 0.1484375 0.1875
vt 0.5234375 0.1875
vt 0.5234375 0.1875
vt 0.5234375 0.25
vt 0.1484375 0.25
vt 0.1484375 0.1875
vt 0.625 0.25
vt 1 0.25
vt 1 0.625
vt 0.625 0.625
vt 1 0.25
vt 1 0.625
vt 0.625 0.625
vt 0.625 0.25
vt 0.5234375 0.1875
vt 0.5234375 0.25
vt 0.1484375 0.25
vt 0.1484375 0.1875
vt 0.546875 0.25
vt 0.171875 0.25
vt 0.171875 0.1875
vt 0.546875 0.1875
vt 0.09375 0.34375
vt 0.09375 0.0625
vt 0.0625 0.0625
vt 0.0625 0.34375
vt 0.1015625 0.0625
vt 0.0703125 0.0625
vt 0.0703125 0.34375
vt 0.1015625 0.34375
vt 0.03125 0.0625
vt 0.53125 0.0625
vt 0.53125 0.34375
vt 0.03125 0.34375
vt 0.53125 0.0625
vt 0.53125 0.34375
vt 0.03125 0.34375
vt 0.03125 0.0625
vt 0.53125 0.0625
vt 0.53125 0.09375
vt 0.03125 0.09375
vt 0.03125 0.0625
vt 0.53125 0.09375
vt 0.03125 0.09375
vt 0.03125 0.0625
vt 0.53125 0.0625
vt 0.5625 0.2109375
vt 0.5625 0.3984375
vt 0.53125 0.3984375
vt 0.53125 0.2109375
vt 0.03125 0.3984375
vt 0 0.3984375
vt 0 0.2109375
vt 0.03125 0.2109375
vt 0.03125 0.3671875
vt 0.03125 0.3984375
vt 0.53125 0.3984375
vt 0.53125 0.3671875
vt 0 1
vt 0.125 1
vt 0.125 0.875
vt 0 0.875
vt 0.53125 0.3984375
vt 0.03125 0.3984375
vt 0.03125 0.2109375
vt 0.53125 0.2109375
vt 0.03125 0.3984375
vt 0.03125 0.2109375
vt 0.53125 0.2109375
vt 0.53125 0.3984375
vt 0.03125 0.2109375
vt 0.03125 0.3984375
vt 0 0.3984375
vt 0 0.2109375
vt 0.5625 0.3984375
vt 0.53125 0.3984375
vt 0.53125 0.2109375
vt 0.5625 0.2109375
vt 0.125 1
vt 0.125 0.875
vt 0 0.875
vt 0 1
vt 0 1
vt 0.125 1
vt 0.125 0.875
vt 0 0.875
vt 0.03125 0.2109375
vt 0.53125 0.2109375
vt 0.53125 0.3828125
vt 0.03125 0.3828125
vt 0.03125 0.2109375
vt 0.03125 0.3828125
vt 0.53125 0.3828125
vt 0.53125 0.2109375
vt 0.5625 0.0625
vt 0.5625 0.2109375
vt 0.53125 0.2109375
vt 0.53125 0.0625
vt 0.03125 0.2109375
vt 0 0.2109375
vt 0 0.0625
vt 0.03125 0.0625
vt 0.03125 0.2109375
vt 0.03125 0.1796875
vt 0.53125 0.1796875
vt 0.53125 0.2109375
vt 0.03125 0.1796875
vt 0.53125 0.1796875
vt 0.53125 0.2109375
vt 0.03125 0.2109375
vt 0.03125 0.0625
vt 0.53125 0.0625
vt 0.53125 0.2109375
vt 0.03125 0.2109375
vt 0.03125 0.0625
vt 0.03125 0.2109375
vt 0.53125 0.2109375
vt 0.53125 0.0625
vt 0 0.5703125
vt 0 0.3984375
vt 0.34375 0.3984375
vt 0.34375 0.5703125
vt 0 0.3984375
vt 0.34375 0.3984375
vt 0.34375 0.5703125
vt 0 0.5703125
vt 0 0.3984375
vt 0.34375 0.3984375
vt 0.34375 0.4296875
vt 0 0.4296875
vt 0.34375 0.3984375
vt 0.34375 0.4296875
vt 0 0.4296875
vt 0 0.3984375
vt 0.5625 0.3828125
vt 0.53125 0.3828125
vt 0.53125 0.2109375
vt 0.5625 0.2109375
vt 0.53125 0.2109375
vt 0.53125 0.3828125
vt 0.5625 0.3828125
vt 0.5625 0.2109375
vt 0 0.2109375
vt 0 0.0625
vt 0.421875 0.0625
vt 0.421875 0.2109375
vt 0.421875 0.2109375
vt 0 0.2109375
vt 0 0.0625
vt 0.421875 0.0625
vt 0 0.1796875
vt 0.421875 0.1796875
vt 0.421875 0.2109375
vt 0 0.2109375
vt 0 0.1796875
vt 0 0.2109375
vt 0.421875 0.2109375
vt 0.421875 0.1796875
vt 0.53125 0.2109375
vt 0.5625 0.2109375
vt 0.5625 0.0625
vt 0.53125 0.0625
vt 0.53125 0.0625
vt 0.53125 0.2109375
vt 0.5625 0.2109375
vt 0.5625 0.0625
vt 0.421875 0.2109375
vt 0 0.2109375
vt 0 0.0625
vt 0.421875 0.0625
vt 0.421875 0.0625
vt 0.421875 0.2109375
vt 0 0.2109375
vt 0 0.0625
vt 0.421875 0.2109375
vt 0.421875 0.1796875
vt 0 0.1796875
vt 0 0.2109375
vt 0.421875 0.1796875
vt 0 0.1796875
vt 0 0.2109375
vt 0.421875 0.2109375
vt 0.5625 0.0625
vt 0.5625 0.2109375
vt 0.53125 0.2109375
vt 0.53125 0.0625
vt 0.5625 0.2109375
vt 0.53125 0.2109375
vt 0.53125 0.0625
vt 0.5625 0.0625
vt 0 0.3984375
vt 0.34375 0.3984375
vt 0.34375 0.5703125
vt 0 0.5703125
vt 0.34375 0.3984375
vt 0.34375 0.5703125
vt 0 0.5703125
vt 0 0.3984375
vt 0.34375 0.3984375
vt 0.34375 0.4296875
vt 0 0.4296875
vt 0 0.3984375
vt 0.34375 0.4296875
vt 0 0.4296875
vt 0 0.3984375
vt 0.34375 0.3984375
vt 0.03125 0.2109375
vt 0.03125 0.3828125
vt 0 0.3828125
vt 0 0.2109375
vt 0 0.3828125
vt 0.03125 0.3828125
vt 0.03125 0.2109375
vt 0 0.2109375
vt 0.03125 0.1484375
vt 0.03125 0.2109375
vt 0 0.2109375
vt 0 0.1484375
vt 0.5625 0.2109375
vt 0.53125 0.2109375
vt 0.53125 0.1484375
vt 0.5625 0.1484375
vt 0.03125 0.1796875
vt 0.03125 0.2109375
vt 0.53125 0.2109375
vt 0.53125 0.1796875
vt 0.53125 0.1796875
vt 0.03125 0.1796875
vt 0.03125 0.2109375
vt 0.53125 0.2109375
vt 0.53125 0.2109375
vt 0.03125 0.2109375
vt 0.03125 0.1484375
vt 0.53125 0.1484375
vt 0.03125 0.2109375
vt 0.03125 0.1484375
vt 0.53125 0.1484375
vt 0.53125 0.2109375
vt 0.5625 0.0625
vt 0.5625 0.1953125
vt 0.53125 0.1953125
vt 0.53125 0.0625
vt 0.03125 0.1953125
vt 0 0.1953125
vt 0 0.0625
vt 0.03125 0.0625
vt 0.03125 0.2109375
vt 0.03125 0.1796875
vt 0.53125 0.1796875
vt 0.53125 0.2109375
vt 0.53125 0.2109375
vt 0.03125 0.2109375
vt 0.03125 0.1796875
vt 0.53125 0.1796875
vt 0.53125 0.1953125
vt 0.03125 0.1953125
vt 0.03125 0.0625
vt 0.53125 0.0625
vt 0.03125 0.1953125
vt 0.03125 0.0625
vt 0.53125 0.0625
vt 0.53125 0.1953125
vn 1 0 0
vn -1 0 0
vn 0 1 0
vn 0 -1 0
vn 0 0 1
vn 0 0 -1
vn 1 0 0
vn -1 0 0
vn 0 1 0
vn 0 -1 0
vn 0 0 1
vn 0 0 -1
vn 1 0 0
vn -1 0 0
vn 0 1 0
vn 0 -1 0
vn 0 0 1
vn 0 0 -1
vn 1 0 0
vn -1 0 0
vn 0 1 0
vn 0 -1 0
vn 0 0 1
vn 0 0 -1
vn 1 0 0
vn -1 0 0
vn 0 1 0
vn 0 -1 0
vn 0 0 1
vn 0 0 -1
vn 1 0 0
vn -1 0 0
vn 0 1 0
vn 0 -1 0
vn 0 0 1
vn 0 0 -1
vn 1 0 0
vn -1 0 0
vn 0 1 0
vn 0 -1 0
vn 0 0 1
vn 0 0 -1
vn 1 0 0
vn -1 0 0
vn 0 1 0
vn 0 -1 0
vn 0 0 1
vn 0 0 -1
vn -1 0 0
vn 1 0 0
vn 0 1 0
vn 0 -1 0
vn 0 0 1
vn 0 0 -1
vn 1 0 0
vn -1 0 0
vn 0 1 0
vn 0 -1 0
vn 0 0 1
vn 0 0 -1
vn 1 0 0
vn -1 0 0
vn 0 1 0
vn 0 -1 0
vn 0 0 1
vn 0 0 -1
vn 1 0 0
vn -1 0 0
vn 0 1 0
vn 0 -1 0
vn 0 0 1
vn 0 0 -1
vn 1 0 0
vn -1 0 0
vn 0 0 -1
vn 0 0 1
vn 0 1 2.4223047810003414e-16
vn 0 -1 -2.4223047810003414e-16
vn 1 0 0
vn -1 0 0
vn 0 0 -1
vn 0 0 1
vn 0 1 2.4223047810003414e-16
vn 0 -1 -2.8260222445003984e-16
vn -1 0 0
vn 1 0 0
vn 0 0 -1
vn 0 0 1
vn 0 1 2.4223047810003414e-16
vn 0 -1 -2.8260222445003984e-16
vn -1 0 0
vn 1 0 0
vn 0 0 -1
vn 0 0 1
vn 0 1 2.4223047810003414e-16
vn 0 -1 -2.4223047810003414e-16
vn 1 0 0
vn -1 0 0
vn 0 1 0
vn 0 -1 0
vn 0 0 1
vn 0 0 -1
vn 1 0 0
vn -1 0 0
vn 0 1 0
vn 0 -1 0
vn 0 0 1
vn 0 0 -1
vn 1 0 0
vn -1 0 0
vn 0 1 0
vn 0 -1 0
vn 0 0 1
vn 0 0 -1
vn 1 0 0
vn -1 0 0
vn 0 1 0
vn 0 -1 0
vn 0 0 1
vn 0 0 -1
vn 1 0 0
vn -1 0 0
vn 0 0.7071067811865485 0.7071067811865467
vn 0 -0.7071067811865478 -0.7071067811865474
vn 0 -0.7071067811865476 0.7071067811865476
vn 0 0.7071067811865476 -0.7071067811865475
vn -1 0 0
vn 1 0 0
vn 0 0.7071067811865485 0.7071067811865467
vn 0 -0.7071067811865478 -0.7071067811865474
vn 0 -0.7071067811865476 0.7071067811865476
vn 0 0.7071067811865476 -0.7071067811865475
vn 1 0 0
vn -1 0 0
vn 0 0.7071067811865485 -0.7071067811865467
vn 0 -0.7071067811865478 0.7071067811865474
vn 0 -0.7071067811865476 -0.7071067811865476
vn 0 0.7071067811865476 0.7071067811865475
vn 1 0 0
vn -1 0 0
vn 0 0.7071067811865474 -0.7071067811865478
vn 0 -0.7071067811865476 0.7071067811865476
vn 0 -0.7071067811865476 -0.7071067811865476
vn 0 0.7071067811865474 0.7071067811865478
vn -1 0 0
vn 1 0 0
vn 0 0.7071067811865474 -0.7071067811865478
vn 0 -0.7071067811865476 0.7071067811865476
vn 0 -0.7071067811865476 -0.7071067811865476
vn 0 0.7071067811865474 0.7071067811865478
vn -1 0 0
vn 1 0 0
vn 0 0.7071067811865475 -0.7071067811865477
vn 0 -0.7071067811865476 0.7071067811865475
vn 0 -0.7071067811865475 -0.7071067811865476
vn 0 0.7071067811865478 0.7071067811865474
vn -1 0 0
vn 1 0 0
vn 0 0.9914448613738104 -0.13052619222005155
vn 0 -0.9914448613738104 0.13052619222005155
vn 0 -0.13052619222005282 -0.9914448613738103
vn 0 0.13052619222005282 0.9914448613738103
vn -1 0 0
vn 1 0 0
vn 0 0.9914448613738104 0.13052619222005155
vn 0 -0.9914448613738104 -0.13052619222005155
vn 0 0.13052619222005282 -0.9914448613738103
vn 0 -0.13052619222005282 0.9914448613738103
vn -1 0 0
vn 1 0 0
vn 0 1 0
vn 0 -1 0
vn 0 0 1
vn 0 0 -1
vn -1 0 0
vn 1 0 0
vn 0 0.7071067811865485 -0.7071067811865467
vn 0 -0.7071067811865478 0.7071067811865474
vn 0 -0.7071067811865476 -0.7071067811865476
vn 0 0.7071067811865476 0.7071067811865475
vn -1 0 0
vn 1 0 0
vn 0 1 0
vn 0 -1 0
vn 0 0 1
vn 0 0 -1
vn -1 0 0
vn 1 0 0
vn 0 1 0
vn 0 -1 0
vn 0 0 1
vn 0 0 -1
vn 1 0 0
vn -1 0 0
vn 0 1 0
vn 0 -1 0
vn 0 0 1
vn 0 0 -1
vn 1 0 0
vn -1 0 0
vn 0 1 0
vn 0 -1 0
vn 0 0 1
vn 0 0 -1
vn 1 0 0
vn -1 0 0
vn 0 1 0
vn 0 -1 0
vn 0 0 1
vn 0 0 -1
vn 1 0 0
vn -1 0 0
vn 0 1 0
vn 0 -1 0
vn 0 0 1
vn 0 0 -1
vn 1 0 0
vn -1 0 0
vn 0 1 0
vn 0 -1 0
vn 0 0 1
vn 0 0 -1
vn 1 0 0
vn -1 0 0
vn 0 1 0
vn 0 -1 0
vn 0 0 1
vn 0 0 -1
vn 1 0 0
vn -1 0 0
vn 0 1 0
vn 0 -1 0
vn 0 0 1
vn 0 0 -1
vn 1 0 0
vn -1 0 0
vn 0 1 0
vn 0 -1 0
vn 0 0 1
vn 0 0 -1
vn 1 0 0
vn -1 0 0
vn 0 1 0
vn 0 -1 0
vn 0 0 1
vn 0 0 -1
vn 1 0 0
vn -1 0 0
vn 0 1 0
vn 0 -1 0
vn 0 0 1
vn 0 0 -1
vn 1 0 0
vn -1 0 0
vn 0 1 0
vn 0 -1 0
vn 0 0 1
vn 0 0 -1
vn 1 0 0
vn -1 0 0
vn 0 1 0
vn 0 -1 0
vn 0 0 1
vn 0 0 -1
vn 1 0 0
vn -1 0 0
vn 0 1 0
vn 0 -1 0
vn 0 0 1
vn 0 0 -1
vn -1 0 0
vn 1 0 0
vn 0 1 0
vn 0 -1 0
vn 0 0 1
vn 0 0 -1
vn -1 0 0
vn 1 0 0
vn 0 1 0
vn 0 -1 0
vn 0 0 1
vn 0 0 -1
vn 1 0 0
vn -1 0 0
vn 0 1 0
vn 0 -1 0
vn 0 0 1
vn 0 0 -1
vn 1 0 0
vn -1 0 0
vn 0 1 0
vn 0 -1 0
vn 0 0 1
vn 0 0 -1
vn 1 0 0
vn -1 0 0
vn 0 1 0
vn 0 -1 0
vn 0 0 -1
vn 0 0 1
vn 1 0 0
vn -1 0 0
vn 0 1 0
vn 0 -1 0
vn 0 0 1
vn 0 0 -1
vn 1 0 0
vn -1 0 0
vn 0 1 0
vn 0 -1 0
vn 0 0 1
vn 0 0 -1
vn 1 0 0
vn -1 0 0
vn 0 1 0
vn 0 -1 0
vn 0 0 1
vn 0 0 -1
vn 1 0 0
vn -1 0 0
vn 0 1 0
vn 0 -1 0
vn 0 0 1
vn 0 0 -1
vn -1 0 0
vn 1 0 0
vn 0 1 0
vn 0 -1 0
vn 0 0 1
vn 0 0 -1
vn 1 0 0
vn -1 0 0
vn 0 1 0
vn 0 -1 0
vn 0 0 1
vn 0 0 -1
vn -1 0 0
vn 1 0 0
vn 0 1 0
vn 0 -1 0
vn 0 0 1
vn 0 0 -1
vn 1 0 0
vn -1 0 0
vn 0 1 0
vn 0 -1 0
vn 0 0 1
vn 0 0 -1
vn 1 0 0
vn -1 0 0
vn 0 1 0
vn 0 -1 0
vn 0 0 1
vn 0 0 -1
vn 1 0 0
vn -1 0 0
vn 0 1 0
vn 0 -1 0
vn 0 0 1
vn 0 0 -1
vn -1 0 0
vn 1 0 0
vn 0 1 0
vn 0 -1 0
vn 0 0 1
vn 0 0 -1
vn -1 0 0
vn 1 0 0
vn 0 1 0
vn 0 -1 0
vn 0 0 1
vn 0 0 -1
vn -1 0 0
vn 1 0 0
vn 0 1 0
vn 0 -1 0
vn 0 0 1
vn 0 0 -1
vn -1 0 0
vn 1 0 0
vn 0 1 0
vn 0 -1 0
vn 0 0 1
vn 0 0 -1
vn -1 0 0
vn 1 0 0
vn 0 1 0
vn 0 -1 0
vn 0 0 1
vn 0 0 -1
vn 1 0 0
vn -1 0 0
vn 0 1 0
vn 0 -1 0
vn 0 0 1
vn 0 0 -1
vn 1 0 0
vn -1 0 0
vn 0 1 0
vn 0 -1 0
vn 0 0 1
vn 0 0 -1
vn -1 0 0
vn 1 0 0
vn 0 1 0
vn 0 -1 0
vn 0 0 1
vn 0 0 -1
vn -1 0 0
vn 1 0 0
vn 0 0.7071067811865471 0.707106781186548
vn 0 -0.7071067811865476 -0.7071067811865476
vn 0 -0.7071067811865475 0.7071067811865477
vn 0 0.7071067811865478 -0.7071067811865474
usemtl multiblock_base
f 3/1/1 2/2/1 4/3/1 5/4/1
f 8/5/2 6/6/2 7/7/2 9/8/2
f 6/9/3 2/10/3 3/11/3 7/12/3
f 5/13/4 4/14/4 8/15/4 9/16/4
usemtl multiblock_components
f 4/17/5 2/18/5 6/19/5 8/20/5
usemtl multiblock_base
f 7/21/6 3/22/6 5/23/6 9/24/6
usemtl multiblock_components
f 11/25/7 10/26/7 12/27/7 13/28/7
usemtl multiblock_base
f 16/29/8 14/30/8 15/31/8 17/32/8
f 14/33/9 10/34/9 11/35/9 15/36/9
f 13/37/10 12/38/10 16/39/10 17/40/10
f 12/41/11 10/42/11 14/43/11 16/44/11
f 15/45/12 11/46/12 13/47/12 17/48/12
f 19/49/13 18/50/13 20/51/13 21/52/13
f 24/53/14 22/54/14 23/55/14 25/56/14
f 22/57/15 18/58/15 19/59/15 23/60/15
f 21/61/16 20/62/16 24/63/16 25/64/16
f 20/65/17 18/66/17 22/67/17 24/68/17
usemtl multiblock_components
f 23/69/18 19/70/18 21/71/18 25/72/18
usemtl flotation_cell
f 27/73/19 26/74/19 28/75/19 29/76/19
f 32/77/20 30/78/20 31/79/20 33/80/20
usemtl multiblock_components
f 30/81/21 26/82/21 27/83/21 31/84/21
usemtl flotation_cell
f 29/85/22 28/86/22 32/87/22 33/88/22
f 28/89/23 26/90/23 30/91/23 32/92/23
f 31/93/24 27/94/24 29/95/24 33/96/24
usemtl multiblock_base
f 35/97/25 34/98/25 36/99/25 37/100/25
usemtl multiblock_components
f 40/101/26 38/102/26 39/103/26 41/104/26
usemtl multiblock_base
f 38/105/27 34/106/27 35/107/27 39/108/27
f 37/109/28 36/110/28 40/111/28 41/112/28
f 36/113/29 34/114/29 38/115/29 40/116/29
f 39/117/30 35/118/30 37/119/30 41/120/30
f 43/121/31 42/122/31 44/123/31 45/124/31
f 48/125/32 46/126/32 47/127/32 49/128/32
f 46/129/33 42/130/33 43/131/33 47/132/33
f 45/133/34 44/134/34 48/135/34 49/136/34
usemtl multiblock_components
f 44/137/35 42/138/35 46/139/35 48/140/35
usemtl multiblock_base
f 47/141/36 43/142/36 45/143/36 49/144/36
usemtl multiblock_components
f 51/145/37 50/146/37 52/147/37 53/148/37
f 56/149/38 54/150/38 55/151/38 57/152/38
f 54/153/39 50/154/39 51/155/39 55/156/39
f 53/157/40 52/158/40 56/159/40 57/160/40
f 52/161/41 50/162/41 54/163/41 56/164/41
f 55/165/42 51/166/42 53/167/42 57/168/42
f 59/169/43 58/170/43 60/171/43 61/172/43
f 64/173/44 62/174/44 63/175/44 65/176/44
f 62/177/45 58/178/45 59/179/45 63/180/45
f 61/181/46 60/182/46 64/183/46 65/184/46
f 60/185/47 58/186/47 62/187/47 64/188/47
f 63/189/48 59/190/48 61/191/48 65/192/48
usemtl flotation_cell
f 68/193/49 66/194/49 67/195/49 69/196/49
f 71/197/50 70/198/50 72/199/50 73/200/50
f 67/201/51 66/202/51 70/203/51 71/204/51
f 72/205/52 68/206/52 69/207/52 73/208/52
f 70/209/53 66/210/53 68/211/53 72/212/53
f 69/213/54 67/214/54 71/215/54 73/216/54
f 75/217/55 74/218/55 76/219/55 77/220/55
f 80/221/56 78/222/56 79/223/56 81/224/56
f 78/225/57 74/226/57 75/227/57 79/228/57
f 77/229/58 76/230/58 80/231/58 81/232/58
f 76/233/59 74/234/59 78/235/59 80/236/59
f 79/237/60 75/238/60 77/239/60 81/240/60
f 83/241/61 82/242/61 84/243/61 85/244/61
f 88/245/62 86/246/62 87/247/62 89/248/62
f 86/249/63 82/250/63 83/251/63 87/252/63
f 85/253/64 84/254/64 88/255/64 89/256/64
f 84/257/65 82/258/65 86/259/65 88/260/65
f 87/261/66 83/262/66 85/263/66 89/264/66
f 91/265/67 90/266/67 92/267/67 93/268/67
f 96/269/68 94/270/68 95/271/68 97/272/68
f 94/273/69 90/274/69 91/275/69 95/276/69
f 93/277/70 92/278/70 96/279/70 97/280/70
f 92/281/71 90/282/71 94/283/71 96/284/71
f 95/285/72 91/286/72 93/287/72 97/288/72
f 99/289/73 98/290/73 100/291/73 101/292/73
f 104/293/74 102/294/74 103/295/74 105/296/74
f 102/297/75 98/298/75 99/299/75 103/300/75
f 101/301/76 100/302/76 104/303/76 105/304/76
f 100/305/77 98/306/77 102/307/77 104/308/77
f 103/309/78 99/310/78 101/311/78 105/312/78
f 107/313/79 106/314/79 108/315/79 109/316/79
f 112/317/80 110/318/80 111/319/80 113/320/80
f 110/321/81 106/322/81 107/323/81 111/324/81
f 109/325/82 108/326/82 112/327/82 113/328/82
f 108/329/83 106/330/83 110/331/83 112/332/83
f 111/333/84 107/334/84 109/335/84 113/336/84
f 116/337/85 114/338/85 115/339/85 117/340/85
f 119/341/86 118/342/86 120/343/86 121/344/86
f 115/345/87 114/346/87 118/347/87 119/348/87
f 120/349/88 116/350/88 117/351/88 121/352/88
f 118/353/89 114/354/89 116/355/89 120/356/89
f 117/357/90 115/358/90 119/359/90 121/360/90
f 124/361/91 122/362/91 123/363/91 125/364/91
f 127/365/92 126/366/92 128/367/92 129/368/92
f 123/369/93 122/370/93 126/371/93 127/372/93
f 128/373/94 124/374/94 125/375/94 129/376/94
f 126/377/95 122/378/95 124/379/95 128/380/95
f 125/381/96 123/382/96 127/383/96 129/384/96
f 131/385/97 130/386/97 132/387/97 133/388/97
f 136/389/98 134/390/98 135/391/98 137/392/98
f 134/393/99 130/394/99 131/395/99 135/396/99
f 133/397/100 132/398/100 136/399/100 137/400/100
f 132/401/101 130/402/101 134/403/101 136/404/101
f 135/405/102 131/406/102 133/407/102 137/408/102
f 139/409/103 138/410/103 140/411/103 141/412/103
f 144/413/104 142/414/104 143/415/104 145/416/104
f 142/417/105 138/418/105 139/419/105 143/420/105
f 141/421/106 140/422/106 144/423/106 145/424/106
f 140/425/107 138/426/107 142/427/107 144/428/107
f 143/429/108 139/430/108 141/431/108 145/432/108
f 147/433/109 146/434/109 148/435/109 149/436/109
f 152/437/110 150/438/110 151/439/110 153/440/110
f 150/441/111 146/442/111 147/443/111 151/444/111
f 149/445/112 148/446/112 152/447/112 153/448/112
f 148/449/113 146/450/113 150/451/113 152/452/113
f 151/453/114 147/454/114 149/455/114 153/456/114
f 155/457/115 154/458/115 156/459/115 157/460/115
f 160/461/116 158/462/116 159/463/116 161/464/116
f 158/465/117 154/466/117 155/467/117 159/468/117
f 157/469/118 156/470/118 160/471/118 161/472/118
f 156/473/119 154/474/119 158/475/119 160/476/119
f 159/477/120 155/478/120 157/479/120 161/480/120
f 163/481/121 162/482/121 164/483/121 165/484/121
f 168/485/122 166/486/122 167/487/122 169/488/122
f 166/489/123 162/490/123 163/491/123 167/492/123
f 165/493/124 164/494/124 168/495/124 169/496/124
f 164/497/125 162/498/125 166/499/125 168/500/125
f 167/501/126 163/502/126 165/503/126 169/504/126
f 172/505/127 170/506/127 171/507/127 173/508/127
f 175/509/128 174/510/128 176/511/128 177/512/128
f 171/513/129 170/514/129 174/515/129 175/516/129
f 176/517/130 172/518/130 173/519/130 177/520/130
f 174/521/131 170/522/131 172/523/131 176/524/131
f 173/525/132 171/526/132 175/527/132 177/528/132
f 180/529/133 178/530/133 179/531/133 181/532/133
f 183/533/134 182/534/134 184/535/134 185/536/134
f 179/537/135 178/538/135 182/539/135 183/540/135
f 184/541/136 180/542/136 181/543/136 185/544/136
f 182/545/137 178/546/137 180/547/137 184/548/137
f 181/549/138 179/550/138 183/551/138 185/552/138
f 188/553/139 186/554/139 187/555/139 189/556/139
f 191/557/140 190/558/140 192/559/140 193/560/140
f 187/561/141 186/562/141 190/563/141 191/564/141
f 192/565/142 188/566/142 189/567/142 193/568/142
f 190/569/143 186/570/143 188/571/143 192/572/143
f 189/573/144 187/574/144 191/575/144 193/576/144
f 195/577/145 194/578/145 196/579/145 197/580/145
f 200/581/146 198/582/146 199/583/146 201/584/146
f 198/585/147 194/586/147 195/587/147 199/588/147
f 197/589/148 196/590/148 200/591/148 201/592/148
f 196/593/149 194/594/149 198/595/149 200/596/149
f 199/597/150 195/598/150 197/599/150 201/600/150
f 203/601/151 202/602/151 204/603/151 205/604/151
f 208/605/152 206/606/152 207/607/152 209/608/152
f 206/609/153 202/610/153 203/611/153 207/612/153
f 205/613/154 204/614/154 208/615/154 209/616/154
f 204/617/155 202/618/155 206/619/155 208/620/155
f 207/621/156 203/622/156 205/623/156 209/624/156
f 211/625/157 210/626/157 212/627/157 213/628/157
f 216/629/158 214/630/158 215/631/158 217/632/158
f 214/633/159 210/634/159 211/635/159 215/636/159
f 213/637/160 212/638/160 216/639/160 217/640/160
f 212/641/161 210/642/161 214/643/161 216/644/161
f 215/645/162 211/646/162 213/647/162 217/648/162
f 219/649/163 218/650/163 220/651/163 221/652/163
f 224/653/164 222/654/164 223/655/164 225/656/164
f 222/657/165 218/658/165 219/659/165 223/660/165
f 221/661/166 220/662/166 224/663/166 225/664/166
f 220/665/167 218/666/167 222/667/167 224/668/167
f 223/669/168 219/670/168 221/671/168 225/672/168
f 228/673/169 226/674/169 227/675/169 229/676/169
f 231/677/170 230/678/170 232/679/170 233/680/170
f 227/681/171 226/682/171 230/683/171 231/684/171
f 232/685/172 228/686/172 229/687/172 233/688/172
f 230/689/173 226/690/173 228/691/173 232/692/173
f 229/693/174 227/694/174 231/695/174 233/696/174
f 235/697/175 234/698/175 236/699/175 237/700/175
f 240/701/176 238/702/176 239/703/176 241/704/176
f 238/705/177 234/706/177 235/707/177 239/708/177
f 237/709/178 236/710/178 240/711/178 241/712/178
f 236/713/179 234/714/179 238/715/179 240/716/179
f 239/717/180 235/718/180 237/719/180 241/720/180
f 244/721/181 242/722/181 243/723/181 245/724/181
f 247/725/182 246/726/182 248/727/182 249/728/182
f 243/729/183 242/730/183 246/731/183 247/732/183
f 248/733/184 244/734/184 245/735/184 249/736/184
f 246/737/185 242/738/185 244/739/185 248/740/185
f 245/741/186 243/742/186 247/743/186 249/744/186
f 252/745/187 250/746/187 251/747/187 253/748/187
f 255/749/188 254/750/188 256/751/188 257/752/188
f 251/753/189 250/754/189 254/755/189 255/756/189
f 256/757/190 252/758/190 253/759/190 257/760/190
f 254/761/191 250/762/191 252/763/191 256/764/191
f 253/765/192 251/766/192 255/767/192 257/768/192
f 259/769/193 258/770/193 260/771/193 261/772/193
f 264/773/194 262/774/194 263/775/194 265/776/194
f 262/777/195 258/778/195 259/779/195 263/780/195
f 261/781/196 260/782/196 264/783/196 265/784/196
f 260/785/197 258/786/197 262/787/197 264/788/197
f 263/789/198 259/790/198 261/791/198 265/792/198
f 267/793/199 266/794/199 268/795/199 269/796/199
f 272/797/200 270/798/200 271/799/200 273/800/200
f 270/801/201 266/802/201 267/803/201 271/804/201
f 269/805/202 268/806/202 272/807/202 273/808/202
f 268/809/203 266/810/203 270/811/203 272/812/203
f 271/813/204 267/814/204 269/815/204 273/816/204
f 275/817/205 274/818/205 276/819/205 277/820/205
f 280/821/206 278/822/206 279/823/206 281/824/206
f 278/825/207 274/826/207 275/827/207 279/828/207
f 277/829/208 276/830/208 280/831/208 281/832/208
f 276/833/209 274/834/209 278/835/209 280/836/209
f 279/837/210 275/838/210 277/839/210 281/840/210
f 283/841/211 282/842/211 284/843/211 285/844/211
f 288/845/212 286/846/212 287/847/212 289/848/212
f 286/849/213 282/850/213 283/851/213 287/852/213
f 285/853/214 284/854/214 288/855/214 289/856/214
f 284/857/215 282/858/215 286/859/215 288/860/215
f 287/861/216 283/862/216 285/863/216 289/864/216
f 291/865/217 290/866/217 292/867/217 293/868/217
f 296/869/218 294/870/218 295/871/218 297/872/218
f 294/873/219 290/874/219 291/875/219 295/876/219
f 293/877/220 292/878/220 296/879/220 297/880/220
f 292/881/221 290/882/221 294/883/221 296/884/221
f 295/885/222 291/886/222 293/887/222 297/888/222
f 299/889/223 298/890/223 300/891/223 301/892/223
f 304/893/224 302/894/224 303/895/224 305/896/224
f 302/897/225 298/898/225 299/899/225 303/900/225
f 301/901/226 300/902/226 304/903/226 305/904/226
f 300/905/227 298/906/227 302/907/227 304/908/227
f 303/909/228 299/910/228 301/911/228 305/912/228
f 307/913/229 306/914/229 308/915/229 309/916/229
f 312/917/230 310/918/230 311/919/230 313/920/230
f 310/921/231 306/922/231 307/923/231 311/924/231
f 309/925/232 308/926/232 312/927/232 313/928/232
f 308/929/233 306/930/233 310/931/233 312/932/233
f 311/933/234 307/934/234 309/935/234 313/936/234
f 315/937/235 314/938/235 316/939/235 317/940/235
f 320/941/236 318/942/236 319/943/236 321/944/236
f 318/945/237 314/946/237 315/947/237 319/948/237
f 317/949/238 316/950/238 320/951/238 321/952/238
f 316/953/239 314/954/239 318/955/239 320/956/239
f 319/957/240 315/958/240 317/959/240 321/960/240
f 323/961/241 322/962/241 324/963/241 325/964/241
f 328/965/242 326/966/242 327/967/242 329/968/242
f 326/969/243 322/970/243 323/971/243 327/972/243
f 325/973/244 324/974/244 328/975/244 329/976/244
f 324/977/245 322/978/245 326/979/245 328/980/245
f 327/981/246 323/982/246 325/983/246 329/984/246
f 331/985/247 330/986/247 332/987/247 333/988/247
f 336/989/248 334/990/248 335/991/248 337/992/248
f 334/993/249 330/994/249 331/995/249 335/996/249
f 333/997/250 332/998/250 336/999/250 337/1000/250
f 332/1001/251 330/1002/251 334/1003/251 336/1004/251
f 335/1005/252 331/1006/252 333/1007/252 337/1008/252
f 339/1009/253 338/1010/253 340/1011/253 341/1012/253
f 344/1013/254 342/1014/254 343/1015/254 345/1016/254
f 342/1017/255 338/1018/255 339/1019/255 343/1020/255
f 341/1021/256 340/1022/256 344/1023/256 345/1024/256
f 340/1025/257 338/1026/257 342/1027/257 344/1028/257
f 343/1029/258 339/1030/258 341/1031/258 345/1032/258
f 347/1033/259 346/1034/259 348/1035/259 349/1036/259
f 352/1037/260 350/1038/260 351/1039/260 353/1040/260
f 350/1041/261 346/1042/261 347/1043/261 351/1044/261
f 349/1045/262 348/1046/262 352/1047/262 353/1048/262
f 348/1049/263 346/1050/263 350/1051/263 352/1052/263
f 351/1053/264 347/1054/264 349/1055/264 353/1056/264
f 355/1057/265 354/1058/265 356/1059/265 357/1060/265
f 360/1061/266 358/1062/266 359/1063/266 361/1064/266
f 358/1065/267 354/1066/267 355/1067/267 359/1068/267
f 357/1069/268 356/1070/268 360/1071/268 361/1072/268
f 356/1073/269 354/1074/269 358/1075/269 360/1076/269
f 359/1077/270 355/1078/270 357/1079/270 361/1080/270
f 364/1081/271 362/1082/271 363/1083/271 365/1084/271
f 367/1085/272 366/1086/272 368/1087/272 369/1088/272
f 363/1089/273 362/1090/273 366/1091/273 367/1092/273
f 368/1093/274 364/1094/274 365/1095/274 369/1096/274
f 366/1097/275 362/1098/275 364/1099/275 368/1100/275
f 365/1101/276 363/1102/276 367/1103/276 369/1104/276
f 372/1105/277 370/1106/277 371/1107/277 373/1108/277
f 375/1109/278 374/1110/278 376/1111/278 377/1112/278
f 371/1113/279 370/1114/279 374/1115/279 375/1116/279
f 376/1117/280 372/1118/280 373/1119/280 377/1120/280
f 374/1121/281 370/1122/281 372/1123/281 376/1124/281
f 373/1125/282 371/1126/282 375/1127/282 377/1128/282
f 379/1129/283 378/1130/283 380/1131/283 381/1132/283
f 384/1133/284 382/1134/284 383/1135/284 385/1136/284
f 382/1137/285 378/1138/285 379/1139/285 383/1140/285
f 381/1141/286 380/1142/286 384/1143/286 385/1144/286
f 380/1145/287 378/1146/287 382/1147/287 384/1148/287
f 383/1149/288 379/1150/288 381/1151/288 385/1152/288
f 387/1153/289 386/1154/289 388/1155/289 389/1156/289
f 392/1157/290 390/1158/290 391/1159/290 393/1160/290
f 390/1161/291 386/1162/291 387/1163/291 391/1164/291
f 389/1165/292 388/1166/292 392/1167/292 393/1168/292
f 388/1169/293 386/1170/293 390/1171/293 392/1172/293
f 391/1173/294 387/1174/294 389/1175/294 393/1176/294
f 396/1177/295 394/1178/295 395/1179/295 397/1180/295
f 399/1181/296 398/1182/296 400/1183/296 401/1184/296
f 395/1185/297 394/1186/297 398/1187/297 399/1188/297
f 400/1189/298 396/1190/298 397/1191/298 401/1192/298
f 398/1193/299 394/1194/299 396/1195/299 400/1196/299
f 397/1197/300 395/1198/300 399/1199/300 401/1200/300
f 403/1201/301 402/1202/301 404/1203/301 405/1204/301
f 408/1205/302 406/1206/302 407/1207/302 409/1208/302
f 406/1209/303 402/1210/303 403/1211/303 407/1212/303
f 405/1213/304 404/1214/304 408/1215/304 409/1216/304
f 404/1217/305 402/1218/305 406/1219/305 408/1220/305
f 407/1221/306 403/1222/306 405/1223/306 409/1224/306
f 411/1225/307 410/1226/307 412/1227/307 413/1228/307
f 416/1229/308 414/1230/308 415/1231/308 417/1232/308
f 414/1233/309 410/1234/309 411/1235/309 415/1236/309
f 413/1237/310 412/1238/310 416/1239/310 417/1240/310
f 412/1241/311 410/1242/311 414/1243/311 416/1244/311
f 415/1245/312 411/1246/312 413/1247/312 417/1248/312
f 419/1249/313 418/1250/313 420/1251/313 421/1252/313
f 424/1253/314 422/1254/314 423/1255/314 425/1256/314
f 422/1257/315 418/1258/315 419/1259/315 423/1260/315
f 421/1261/316 420/1262/316 424/1263/316 425/1264/316
f 420/1265/317 418/1266/317 422/1267/317 424/1268/317
f 423/1269/318 419/1270/318 421/1271/318 425/1272/318
usemtl multiblock_base
f 427/1273/319 426/1274/319 428/1275/319 429/1276/319
f 432/1277/320 430/1278/320 431/1279/320 433/1280/320
f 430/1281/321 426/1282/321 427/1283/321 431/1284/321
f 429/1285/322 428/1286/322 432/1287/322 433/1288/322
f 428/1289/323 426/1290/323 430/1291/323 432/1292/323
f 431/1293/324 427/1294/324 429/1295/324 433/1296/324
f 436/1297/325 434/1298/325 435/1299/325 437/1300/325
f 439/1301/326 438/1302/326 440/1303/326 1/1304/326
f 435/1305/327 434/1306/327 438/1307/327 439/1308/327
f 440/1309/328 436/1310/328 437/1311/328 1/1312/328
f 438/1313/329 434/1314/329 436/1315/329 440/1316/329
f 437/1317/330 435/1318/330 439/1319/330 1/1320/330
f 442/1321/331 441/1322/331 443/1323/331 444/1324/331
f 447/1325/332 445/1326/332 446/1327/332 448/1328/332
f 445/1329/333 441/1330/333 442/1331/333 446/1332/333
f 444/1333/334 443/1334/334 447/1335/334 448/1336/334
f 443/1337/335 441/1338/335 445/1339/335 447/1340/335
f 446/1341/336 442/1342/336 444/1343/336 448/1344/336
f 451/1345/337 449/1346/337 450/1347/337 452/1348/337
f 454/1349/338 453/1350/338 455/1351/338 456/1352/338
f 450/1353/339 449/1354/339 453/1355/339 454/1356/339
f 455/1357/340 451/1358/340 452/1359/340 456/1360/340
f 453/1361/341 449/1362/341 451/1363/341 455/1364/341
f 452/1365/342 450/1366/342 454/1367/342 456/1368/342
f 458/1369/343 457/1370/343 459/1371/343 460/1372/343
f 463/1373/344 461/1374/344 462/1375/344 464/1376/344
f 461/1377/345 457/1378/345 458/1379/345 462/1380/345
f 460/1381/346 459/1382/346 463/1383/346 464/1384/346
f 459/1385/347 457/1386/347 461/1387/347 463/1388/347
f 462/1389/348 458/1390/348 460/1391/348 464/1392/348
f 466/1393/349 465/1394/349 467/1395/349 468/1396/349
f 471/1397/350 469/1398/350 470/1399/350 472/1400/350
f 469/1401/351 465/1402/351 466/1403/351 470/1404/351
f 468/1405/352 467/1406/352 471/1407/352 472/1408/352
f 467/1409/353 465/1410/353 469/1411/353 471/1412/353
f 470/1413/354 466/1414/354 468/1415/354 472/1416/354
usemtl flotation_cell
f 474/1417/355 473/1418/355 475/1419/355 476/1420/355
f 479/1421/356 477/1422/356 478/1423/356 480/1424/356
f 477/1425/357 473/1426/357 474/1427/357 478/1428/357
f 476/1429/358 475/1430/358 479/1431/358 480/1432/358
f 475/1433/359 473/1434/359 477/1435/359 479/1436/359
f 478/1437/360 474/1438/360 476/1439/360 480/1440/360
f 483/1441/361 481/1442/361 482/1443/361 484/1444/361
f 486/1445/362 485/1446/362 487/1447/362 488/1448/362
f 482/1449/363 481/1450/363 485/1451/363 486/1452/363
usemtl none
f 487/1453/364 483/1454/364 484/1455/364 488/1456/364
usemtl flotation_cell
f 485/1457/365 481/1458/365 483/1459/365 487/1460/365
f 484/1461/366 482/1462/366 486/1463/366 488/1464/366
f 491/1465/367 489/1466/367 490/1467/367 492/1468/367
f 494/1469/368 493/1470/368 495/1471/368 496/1472/368
usemtl none
f 490/1473/369 489/1474/369 493/1475/369 494/1476/369
f 495/1477/370 491/1478/370 492/1479/370 496/1480/370
usemtl flotation_cell
f 493/1481/371 489/1482/371 491/1483/371 495/1484/371
f 492/1485/372 490/1486/372 494/1487/372 496/1488/372
f 499/1489/373 497/1490/373 498/1491/373 500/1492/373
f 502/1493/374 501/1494/374 503/1495/374 504/1496/374
f 498/1497/375 497/1498/375 501/1499/375 502/1500/375
f 503/1501/376 499/1502/376 500/1503/376 504/1504/376
f 501/1505/377 497/1506/377 499/1507/377 503/1508/377
f 500/1509/378 498/1510/378 502/1511/378 504/1512/378
f 507/1513/379 505/1514/379 506/1515/379 508/1516/379
f 510/1517/380 509/1518/380 511/1519/380 512/1520/380
f 506/1521/381 505/1522/381 509/1523/381 510/1524/381
f 511/1525/382 507/1526/382 508/1527/382 512/1528/382
f 509/1529/383 505/1530/383 507/1531/383 511/1532/383
f 508/1533/384 506/1534/384 510/1535/384 512/1536/384
f 515/1537/385 513/1538/385 514/1539/385 516/1540/385
f 518/1541/386 517/1542/386 519/1543/386 520/1544/386
f 514/1545/387 513/1546/387 517/1547/387 518/1548/387
f 519/1549/388 515/1550/388 516/1551/388 520/1552/388
f 517/1553/389 513/1554/389 515/1555/389 519/1556/389
f 516/1557/390 514/1558/390 518/1559/390 520/1560/390
f 522/1561/391 521/1562/391 523/1563/391 524/1564/391
f 527/1565/392 525/1566/392 526/1567/392 528/1568/392
f 525/1569/393 521/1570/393 522/1571/393 526/1572/393
f 524/1573/394 523/1574/394 527/1575/394 528/1576/394
f 523/1577/395 521/1578/395 525/1579/395 527/1580/395
f 526/1581/396 522/1582/396 524/1583/396 528/1584/396
f 530/1585/397 529/1586/397 531/1587/397 532/1588/397
f 535/1589/398 533/1590/398 534/1591/398 536/1592/398
f 533/1593/399 529/1594/399 530/1595/399 534/1596/399
f 532/1597/400 531/1598/400 535/1599/400 536/1600/400
f 531/1601/401 529/1602/401 533/1603/401 535/1604/401
f 534/1605/402 530/1606/402 532/1607/402 536/1608/402
f 539/1609/403 537/1610/403 538/1611/403 540/1612/403
f 542/1613/404 541/1614/404 543/1615/404 544/1616/404
f 538/1617/405 537/1618/405 541/1619/405 542/1620/405
f 543/1621/406 539/1622/406 540/1623/406 544/1624/406
f 541/1625/407 537/1626/407 539/1627/407 543/1628/407
f 540/1629/408 538/1630/408 542/1631/408 544/1632/408
f 547/1633/409 545/1634/409 546/1635/409 548/1636/409
f 550/1637/410 549/1638/410 551/1639/410 552/1640/410
f 546/1641/411 545/1642/411 549/1643/411 550/1644/411
f 551/1645/412 547/1646/412 548/1647/412 552/1648/412
f 549/1649/413 545/1650/413 547/1651/413 551/1652/413
f 548/1653/414 546/1654/414 550/1655/414 552/1656/414